<svg width="264" height="101" viewBox="0 0 264 101" fill="none" xmlns="http://www.w3.org/2000/svg">
<path d="M144.112 22.8512C141.224 25.4139 138 30.5881 138 30.5881C138 30.5881 146.067 31.1679 150.661 29.2986C152.849 28.4078 154.18 27.8934 155.899 26.2898C156.773 25.4756 157.873 23.9395 158.519 21.9915C159.206 19.917 158.955 16.4038 158.955 16.4038C158.955 16.4038 152.494 17.4469 148.914 19.4126C146.889 20.5246 145.835 21.3226 144.112 22.8512Z" fill="#625B49" stroke="#625B49"/>
<path d="M142.693 41.2965C139.75 39.4245 135 36.7883 135 36.7883C135 36.7883 136.832 41.1805 137.992 44.0013C139.509 47.6917 139.298 50.4681 141.838 53.4684C143.836 55.8288 145.507 56.6419 148.224 57.9646L148.249 57.9766C151.08 59.3546 155.942 60.2306 155.942 60.2306C155.942 60.2306 156.073 58.0257 155.942 56.6241C155.703 54.0732 155.502 52.4985 154.232 50.3127C152.747 47.7563 150.963 47.1347 148.676 45.3538C146.442 43.6132 145.072 42.8095 142.693 41.2965Z" fill="#6D6A5B" stroke="#6D6A5B"/>
<path d="M129.706 39.5894C130.592 38.6557 131.496 36.7883 131.496 36.7883C131.496 36.7883 132.999 38.242 133.734 39.1225C134.76 40.3526 135.995 42.4623 136.419 43.791C137.165 46.1252 137.72 48.4567 138.657 52.1941C139.334 54.8923 140 59.1968 140 59.1968C140 59.1968 136.174 59.4035 133.734 58.2631C132.229 57.5598 130.855 56.6957 129.706 55.462C128.452 54.1157 127.983 53.059 127.468 51.2605C127.144 50.1286 127.083 49.28 127.02 47.9926C126.921 45.9815 127.183 44.7204 127.915 42.8573C128.486 41.4062 129.001 40.3312 129.706 39.5894Z" fill="#6D6A5B" stroke="#6D6A5B"/>
<path d="M122.78 38.1612C124.557 37.7036 129 36.7883 129 36.7883C129 36.7883 127.058 42.9075 125.001 46.3982C123.777 48.4763 123.091 49.6881 121.447 51.432C119.634 53.3551 116.116 55.5505 116.116 55.5505C116.116 55.5505 112.25 58.0892 109.452 58.7538C107.753 59.1573 105.009 59.2114 105.009 59.2114C105.009 59.2114 104.848 54.7512 105.897 51.8896C106.529 50.1684 107.23 48.6863 108.119 47.3134C109.027 45.9107 110.609 43.9022 112.117 42.7373C113.894 41.3645 113.945 41.3645 117.004 39.9916C118.601 39.2752 121.003 38.6188 122.78 38.1612Z" fill="#6D6A5B" stroke="#6D6A5B"/>
<path d="M124.2 29.0514C125.509 29.8642 129 33.5665 129 33.5665C129 33.5665 126.701 34.9494 125.073 35.3723C122.759 35.9736 118.964 35.8239 116.782 35.3723C115.111 35.0265 112.418 33.5663 111.109 32.6633C109.602 31.6236 108.055 29.9543 106.745 28.1483C105.921 27.0111 105 23.6332 105 23.6332C105 23.6332 107.408 23.4198 108.927 23.6331C110.69 23.8806 113.334 24.4533 115.036 24.9877C117.254 25.6838 117.685 25.9005 119.836 26.7937L119.878 26.811C121.959 27.6751 122.033 27.7056 124.2 29.0514Z" fill="#6D6A5B" stroke="#6D6A5B"/>
<path d="M106.788 17.3678C105.859 15.7176 105 12.8549 105 12.8549L111.257 12.4036C111.257 12.4036 114.82 12.0518 116.952 12.8549C118.474 13.4281 119.314 14.0802 120.59 15.0696L120.644 15.1113C122.405 16.4779 123.225 17.4659 124.666 19.1729C125.799 20.5141 126.382 21.3155 127.348 22.7832C128.991 25.2783 130.506 26.5863 130.924 29.5525C131.096 30.7739 130.924 32.7115 130.924 32.7115C130.924 32.7115 129.019 30.6559 126.901 29.1012C125.687 28.2095 124.211 27.5426 122.878 26.8447C121.408 26.0751 119.75 25.5614 118.409 25.0396C116.441 24.2737 115.863 24.1066 113.939 23.2344C112.371 22.5235 110.816 22.057 109.47 20.9781C108.102 19.8826 107.65 18.8999 106.788 17.3678Z" fill="#646453" stroke="#65644B"/>
<path d="M143.778 31.0017C139.738 31.6132 134 32.347 134 32.347C134 32.347 136.632 35.0394 139.778 36.83C142.755 38.525 146.178 39.9777 148.222 40.4171C150.266 40.8564 151.333 40.8653 152.667 40.8653C154.607 40.8653 158.889 38.9069 159.778 38.1751C161.311 36.9127 162.889 35.4848 163.333 34.1396C164.125 31.7438 166 30.1051 166 30.1051C166 30.1051 162.451 29.6962 158.444 29.6559C153.919 29.6104 148.254 30.3241 143.778 31.0017Z" fill="#6D6A5B" stroke="#6D6A5B"/>
<path d="M125.907 12.0459C125.907 8.84757 125 5.19238 125 5.19238C125 5.19238 128.176 5.64928 129.991 6.56308C129.991 6.56308 132.934 7.98186 134.981 9.76127C137.077 11.5822 138.111 12.6276 139.065 15.2441C140.041 17.9243 140.352 19.8258 139.518 22.5544C139.052 24.0798 138.529 24.8471 137.703 26.2096C136.262 28.5891 133.167 31.6924 133.167 31.6924C133.167 31.6924 132.769 27.39 131.805 24.8389C131.016 22.7493 130.085 21.8082 129.083 19.813C127.939 17.5331 125.907 14.6006 125.907 12.0459Z" fill="#646453" stroke="#646453"/>
<path d="M19.6139 69.992C20.6805 69.992 21.4912 70.12 22.0459 70.376C22.6005 70.6107 23.0912 70.8773 23.5179 71.176C23.7739 71.3253 23.9765 71.4427 24.1259 71.528C24.2965 71.592 24.4565 71.624 24.6059 71.624C24.8192 71.624 24.9685 71.5067 25.0539 71.272C25.1605 71.0373 25.2459 70.6853 25.3099 70.216H26.0459C26.0245 70.5787 25.9925 71.016 25.9499 71.528C25.9285 72.0187 25.9072 72.68 25.8859 73.512C25.8859 74.3227 25.8859 75.4 25.8859 76.744H25.1499C25.0859 75.72 24.8619 74.7387 24.4779 73.8C24.0939 72.8613 23.5285 72.0933 22.7819 71.496C22.0565 70.8987 21.0965 70.6 19.9019 70.6C18.7712 70.6 17.8325 70.9413 17.0859 71.624C16.3605 72.3067 15.9979 73.2027 15.9979 74.312C15.9979 75.272 16.2432 76.0827 16.7339 76.744C17.2245 77.384 17.8752 77.9707 18.6859 78.504C19.5179 79.016 20.4139 79.5707 21.3739 80.168C22.4832 80.8507 23.4645 81.5333 24.3179 82.216C25.1925 82.8773 25.8752 83.6133 26.3659 84.424C26.8779 85.2347 27.1339 86.216 27.1339 87.368C27.1339 88.7333 26.8245 89.864 26.2059 90.76C25.5872 91.656 24.7659 92.328 23.7419 92.776C22.7179 93.224 21.5872 93.448 20.3499 93.448C19.2192 93.448 18.3232 93.32 17.6619 93.064C17.0005 92.808 16.4352 92.5413 15.9659 92.264C15.4965 91.9653 15.1339 91.816 14.8779 91.816C14.6645 91.816 14.5045 91.9333 14.3979 92.168C14.3125 92.4027 14.2379 92.7547 14.1739 93.224H13.4379C13.4805 92.776 13.5019 92.2533 13.5019 91.656C13.5232 91.0373 13.5339 90.2373 13.5339 89.256C13.5552 88.2747 13.5659 87.0373 13.5659 85.544H14.3019C14.3872 86.824 14.6219 88.0187 15.0059 89.128C15.4112 90.2373 16.0192 91.1333 16.8299 91.816C17.6619 92.4773 18.7605 92.808 20.1259 92.808C20.8299 92.808 21.4912 92.6693 22.1099 92.392C22.7499 92.0933 23.2725 91.6347 23.6779 91.016C24.0832 90.376 24.2859 89.5547 24.2859 88.552C24.2859 87.6773 24.0725 86.92 23.6459 86.28C23.2405 85.6187 22.6645 85.0107 21.9179 84.456C21.1712 83.88 20.2965 83.2933 19.2939 82.696C18.2912 82.0773 17.3525 81.448 16.4779 80.808C15.6032 80.168 14.8992 79.432 14.3659 78.6C13.8539 77.7467 13.5979 76.7227 13.5979 75.528C13.5979 74.2693 13.8752 73.2347 14.4299 72.424C15.0059 71.592 15.7525 70.984 16.6699 70.6C17.5872 70.1947 18.5685 69.992 19.6139 69.992ZM34.6551 67.944V79.912C35.2098 78.4613 35.9778 77.4587 36.9591 76.904C37.9618 76.3493 39.0071 76.072 40.0951 76.072C40.9058 76.072 41.5778 76.1787 42.1111 76.392C42.6658 76.6053 43.1245 76.904 43.4871 77.288C43.8925 77.7147 44.1805 78.248 44.3511 78.888C44.5218 79.528 44.6071 80.392 44.6071 81.48V90.024C44.6071 90.92 44.7885 91.528 45.1511 91.848C45.5351 92.168 46.1645 92.328 47.0391 92.328V93C46.6765 92.9787 46.1218 92.9573 45.3751 92.936C44.6285 92.8933 43.9031 92.872 43.1991 92.872C42.4951 92.872 41.8018 92.8933 41.1191 92.936C40.4578 92.9573 39.9565 92.9787 39.6151 93V92.328C40.3831 92.328 40.9271 92.168 41.2471 91.848C41.5671 91.528 41.7271 90.92 41.7271 90.024V80.776C41.7271 80.1147 41.6738 79.5067 41.5671 78.952C41.4605 78.3973 41.2151 77.9493 40.8311 77.608C40.4685 77.2667 39.9031 77.096 39.1351 77.096C38.2605 77.096 37.4818 77.3413 36.7991 77.832C36.1378 78.3227 35.6151 79.0053 35.2311 79.88C34.8471 80.7547 34.6551 81.7573 34.6551 82.888V90.024C34.6551 90.92 34.8151 91.528 35.1351 91.848C35.4551 92.168 35.9991 92.328 36.7671 92.328V93C36.4258 92.9787 35.9138 92.9573 35.2311 92.936C34.5698 92.8933 33.8871 92.872 33.1831 92.872C32.4791 92.872 31.7538 92.8933 31.0071 92.936C30.2605 92.9573 29.7058 92.9787 29.3431 93V92.328C30.2178 92.328 30.8365 92.168 31.1991 91.848C31.5831 91.528 31.7751 90.92 31.7751 90.024V71.784C31.7751 70.824 31.6045 70.12 31.2631 69.672C30.9218 69.2027 30.2818 68.968 29.3431 68.968V68.296C30.0258 68.36 30.6871 68.392 31.3271 68.392C31.9458 68.392 32.5325 68.36 33.0871 68.296C33.6631 68.2107 34.1858 68.0933 34.6551 67.944ZM52.9876 93.224C52.113 93.224 51.3556 93.064 50.7156 92.744C50.0756 92.4027 49.585 91.9333 49.2436 91.336C48.9236 90.7387 48.7636 90.0453 48.7636 89.256C48.7636 88.3173 48.977 87.5493 49.4036 86.952C49.8516 86.3547 50.417 85.8747 51.0996 85.512C51.7823 85.1493 52.497 84.8507 53.2436 84.616C54.0116 84.36 54.737 84.1253 55.4196 83.912C56.1023 83.6773 56.657 83.4107 57.0836 83.112C57.5316 82.8133 57.7556 82.4187 57.7556 81.928V79.944C57.7556 79.048 57.617 78.3653 57.3396 77.896C57.0836 77.4267 56.7316 77.1173 56.2836 76.968C55.8356 76.7973 55.3343 76.712 54.7796 76.712C54.2463 76.712 53.6703 76.7867 53.0516 76.936C52.4543 77.0853 51.9743 77.3947 51.6116 77.864C52.017 77.9493 52.369 78.1627 52.6676 78.504C52.9663 78.8453 53.1156 79.2827 53.1156 79.816C53.1156 80.3493 52.945 80.776 52.6036 81.096C52.2623 81.3947 51.825 81.544 51.2916 81.544C50.673 81.544 50.2143 81.352 49.9156 80.968C49.6383 80.5627 49.4996 80.1147 49.4996 79.624C49.4996 79.0693 49.6383 78.6213 49.9156 78.28C50.193 77.9387 50.545 77.6187 50.9716 77.32C51.4623 76.9787 52.0916 76.6907 52.8596 76.456C53.649 76.2 54.5343 76.072 55.5156 76.072C56.3903 76.072 57.137 76.1787 57.7556 76.392C58.3743 76.584 58.8863 76.872 59.2916 77.256C59.8463 77.768 60.209 78.3973 60.3796 79.144C60.5503 79.8693 60.6356 80.744 60.6356 81.768V90.664C60.6356 91.1973 60.7103 91.5813 60.8596 91.816C61.0303 92.0507 61.2863 92.168 61.6276 92.168C61.8623 92.168 62.0863 92.1147 62.2996 92.008C62.513 91.9013 62.769 91.7307 63.0676 91.496L63.4196 92.04C62.9716 92.3813 62.545 92.6693 62.1396 92.904C61.7343 93.1173 61.1903 93.224 60.5076 93.224C59.889 93.224 59.377 93.1173 58.9716 92.904C58.5663 92.6907 58.257 92.3813 58.0436 91.976C57.8516 91.5493 57.7556 91.016 57.7556 90.376C57.1796 91.336 56.4863 92.0507 55.6756 92.52C54.8863 92.9893 53.9903 93.224 52.9876 93.224ZM54.1396 91.944C54.8436 91.944 55.4943 91.7413 56.0916 91.336C56.7103 90.9307 57.265 90.3227 57.7556 89.512V83.24C57.4996 83.6027 57.1263 83.912 56.6356 84.168C56.145 84.4027 55.6116 84.648 55.0356 84.904C54.4596 85.1387 53.905 85.4267 53.3716 85.768C52.8596 86.088 52.433 86.5147 52.0916 87.048C51.7503 87.5813 51.5796 88.2747 51.5796 89.128C51.5796 89.9813 51.8036 90.664 52.2516 91.176C52.721 91.688 53.3503 91.944 54.1396 91.944ZM75.1331 76.072C75.9438 76.072 76.6158 76.1787 77.1491 76.392C77.7038 76.6053 78.1625 76.904 78.5251 77.288C78.9305 77.7147 79.2185 78.248 79.3891 78.888C79.5598 79.528 79.6451 80.392 79.6451 81.48V90.024C79.6451 90.92 79.8265 91.528 80.1891 91.848C80.5731 92.168 81.2025 92.328 82.0771 92.328V93C81.7145 92.9787 81.1598 92.9573 80.4131 92.936C79.6665 92.8933 78.9411 92.872 78.2371 92.872C77.5331 92.872 76.8398 92.8933 76.1571 92.936C75.4958 92.9573 74.9945 92.9787 74.6531 93V92.328C75.4211 92.328 75.9651 92.168 76.2851 91.848C76.6051 91.528 76.7651 90.92 76.7651 90.024V80.776C76.7651 80.1147 76.7118 79.5067 76.6051 78.952C76.4985 78.3973 76.2531 77.9493 75.8691 77.608C75.5065 77.2667 74.9411 77.096 74.1731 77.096C73.2771 77.096 72.4878 77.352 71.8051 77.864C71.1438 78.376 70.6211 79.08 70.2371 79.976C69.8745 80.8507 69.6931 81.832 69.6931 82.92V90.024C69.6931 90.92 69.8531 91.528 70.1731 91.848C70.4931 92.168 71.0371 92.328 71.8051 92.328V93C71.4638 92.9787 70.9518 92.9573 70.2691 92.936C69.6078 92.8933 68.9251 92.872 68.2211 92.872C67.5171 92.872 66.7918 92.8933 66.0451 92.936C65.2985 92.9573 64.7438 92.9787 64.3811 93V92.328C65.2558 92.328 65.8745 92.168 66.2371 91.848C66.6211 91.528 66.8131 90.92 66.8131 90.024V80.008C66.8131 79.048 66.6425 78.344 66.3011 77.896C65.9598 77.4267 65.3198 77.192 64.3811 77.192V76.52C65.0638 76.584 65.7251 76.616 66.3651 76.616C66.9838 76.616 67.5705 76.584 68.1251 76.52C68.7011 76.4347 69.2238 76.3173 69.6931 76.168V79.944C70.2478 78.4933 71.0158 77.4907 71.9971 76.936C72.9998 76.36 74.0451 76.072 75.1331 76.072ZM91.2509 76.072C93.1282 76.072 94.5895 76.648 95.6349 77.8C96.7015 78.9307 97.2349 80.7013 97.2349 83.112H85.9389L85.9069 82.504H94.1629C94.2055 81.4587 94.1202 80.4987 93.9069 79.624C93.6935 78.728 93.3522 78.0133 92.8829 77.48C92.4349 76.9467 91.8482 76.68 91.1229 76.68C90.1415 76.68 89.2669 77.1707 88.4989 78.152C87.7522 79.1333 87.3042 80.6907 87.1549 82.824L87.2509 82.952C87.2082 83.272 87.1762 83.624 87.1549 84.008C87.1335 84.392 87.1229 84.776 87.1229 85.16C87.1229 86.6107 87.3575 87.8587 87.8269 88.904C88.2962 89.9493 88.9042 90.7493 89.6509 91.304C90.4189 91.8373 91.2082 92.104 92.0189 92.104C92.6589 92.104 93.2669 92.008 93.8429 91.816C94.4189 91.6027 94.9522 91.2613 95.4429 90.792C95.9335 90.3227 96.3602 89.6933 96.7229 88.904L97.3629 89.16C97.1282 89.864 96.7442 90.5467 96.2109 91.208C95.6775 91.8693 95.0055 92.4133 94.1949 92.84C93.3842 93.2453 92.4455 93.448 91.3789 93.448C89.8429 93.448 88.5202 93.096 87.4109 92.392C86.3229 91.688 85.4802 90.7173 84.8829 89.48C84.3069 88.2213 84.0189 86.7813 84.0189 85.16C84.0189 83.2827 84.3175 81.672 84.9149 80.328C85.5122 78.9627 86.3549 77.9173 87.4429 77.192C88.5309 76.4453 89.8002 76.072 91.2509 76.072ZM104.75 67.912V90.024C104.75 90.92 104.932 91.528 105.294 91.848C105.678 92.168 106.308 92.328 107.182 92.328V93C106.82 92.9787 106.265 92.9573 105.518 92.936C104.793 92.8933 104.057 92.872 103.31 92.872C102.585 92.872 101.849 92.8933 101.102 92.936C100.356 92.9573 99.801 92.9787 99.4384 93V92.328C100.313 92.328 100.932 92.168 101.294 91.848C101.678 91.528 101.87 90.92 101.87 90.024V71.752C101.87 70.792 101.7 70.088 101.358 69.64C101.017 69.1707 100.377 68.936 99.4384 68.936V68.264C100.121 68.328 100.782 68.36 101.422 68.36C102.041 68.36 102.628 68.328 103.182 68.264C103.758 68.1787 104.281 68.0613 104.75 67.912ZM135.539 70.344V70.984C134.878 71.0693 134.238 71.2827 133.619 71.624C133.001 71.9653 132.382 72.5307 131.763 73.32L125.587 81.224L126.291 79.656L133.971 90.408C134.334 90.9413 134.729 91.3573 135.155 91.656C135.582 91.9547 136.126 92.1893 136.787 92.36V93C136.275 92.9573 135.635 92.936 134.867 92.936C134.121 92.9147 133.481 92.904 132.947 92.904C132.585 92.904 132.137 92.9147 131.603 92.936C131.091 92.936 130.441 92.9573 129.651 93V92.36C130.377 92.3173 130.835 92.1893 131.027 91.976C131.219 91.7627 131.145 91.4107 130.803 90.92L126.131 83.88C125.705 83.2187 125.321 82.728 124.979 82.408C124.659 82.0667 124.318 81.8427 123.955 81.736C123.614 81.6293 123.177 81.5653 122.643 81.544V80.904C123.539 80.8827 124.286 80.712 124.883 80.392C125.502 80.0507 126.014 79.624 126.419 79.112L129.491 75.208C130.195 74.312 130.675 73.5547 130.931 72.936C131.187 72.3173 131.177 71.848 130.899 71.528C130.622 71.1867 130.035 71.0053 129.139 70.984V70.344C129.545 70.3653 129.961 70.3867 130.387 70.408C130.814 70.408 131.23 70.4187 131.635 70.44C132.062 70.44 132.457 70.44 132.819 70.44C133.374 70.44 133.886 70.4293 134.355 70.408C134.825 70.3867 135.219 70.3653 135.539 70.344ZM125.363 70.344V70.984C124.638 71.0053 124.083 71.0907 123.699 71.24C123.337 71.368 123.091 71.624 122.963 72.008C122.835 72.3707 122.771 72.9467 122.771 73.736V89.608C122.771 90.376 122.835 90.952 122.963 91.336C123.091 91.72 123.337 91.976 123.699 92.104C124.083 92.232 124.638 92.3173 125.363 92.36V93C124.873 92.9573 124.254 92.936 123.507 92.936C122.782 92.9147 122.046 92.904 121.299 92.904C120.467 92.904 119.689 92.9147 118.963 92.936C118.238 92.936 117.651 92.9573 117.203 93V92.36C117.929 92.3173 118.473 92.232 118.835 92.104C119.219 91.976 119.475 91.72 119.603 91.336C119.731 90.952 119.795 90.376 119.795 89.608V73.736C119.795 72.9467 119.731 72.3707 119.603 72.008C119.475 71.624 119.219 71.368 118.835 71.24C118.473 71.0907 117.929 71.0053 117.203 70.984V70.344C117.651 70.3653 118.238 70.3867 118.963 70.408C119.689 70.4293 120.467 70.44 121.299 70.44C122.046 70.44 122.782 70.4293 123.507 70.408C124.254 70.3867 124.873 70.3653 125.363 70.344ZM141.404 68.52C141.959 68.52 142.439 68.7227 142.844 69.128C143.249 69.5333 143.452 70.0133 143.452 70.568C143.452 71.1227 143.249 71.6027 142.844 72.008C142.439 72.4133 141.959 72.616 141.404 72.616C140.849 72.616 140.369 72.4133 139.964 72.008C139.559 71.6027 139.356 71.1227 139.356 70.568C139.356 70.0133 139.559 69.5333 139.964 69.128C140.369 68.7227 140.849 68.52 141.404 68.52ZM143.068 76.168V90.024C143.068 90.92 143.249 91.528 143.612 91.848C143.996 92.168 144.625 92.328 145.5 92.328V93C145.137 92.9787 144.583 92.9573 143.836 92.936C143.111 92.8933 142.375 92.872 141.628 92.872C140.903 92.872 140.167 92.8933 139.42 92.936C138.673 92.9573 138.119 92.9787 137.756 93V92.328C138.631 92.328 139.249 92.168 139.612 91.848C139.996 91.528 140.188 90.92 140.188 90.024V80.008C140.188 79.048 140.017 78.344 139.676 77.896C139.335 77.4267 138.695 77.192 137.756 77.192V76.52C138.439 76.584 139.1 76.616 139.74 76.616C140.359 76.616 140.945 76.584 141.5 76.52C142.076 76.4347 142.599 76.3173 143.068 76.168ZM157.883 76.072C158.694 76.072 159.366 76.1787 159.899 76.392C160.454 76.6053 160.912 76.904 161.275 77.288C161.68 77.7147 161.968 78.248 162.139 78.888C162.31 79.528 162.395 80.392 162.395 81.48V90.024C162.395 90.92 162.576 91.528 162.939 91.848C163.323 92.168 163.952 92.328 164.827 92.328V93C164.464 92.9787 163.91 92.9573 163.163 92.936C162.416 92.8933 161.691 92.872 160.987 92.872C160.283 92.872 159.59 92.8933 158.907 92.936C158.246 92.9573 157.744 92.9787 157.403 93V92.328C158.171 92.328 158.715 92.168 159.035 91.848C159.355 91.528 159.515 90.92 159.515 90.024V80.776C159.515 80.1147 159.462 79.5067 159.355 78.952C159.248 78.3973 159.003 77.9493 158.619 77.608C158.256 77.2667 157.691 77.096 156.923 77.096C156.027 77.096 155.238 77.352 154.555 77.864C153.894 78.376 153.371 79.08 152.987 79.976C152.624 80.8507 152.443 81.832 152.443 82.92V90.024C152.443 90.92 152.603 91.528 152.923 91.848C153.243 92.168 153.787 92.328 154.555 92.328V93C154.214 92.9787 153.702 92.9573 153.019 92.936C152.358 92.8933 151.675 92.872 150.971 92.872C150.267 92.872 149.542 92.8933 148.795 92.936C148.048 92.9573 147.494 92.9787 147.131 93V92.328C148.006 92.328 148.624 92.168 148.987 91.848C149.371 91.528 149.563 90.92 149.563 90.024V80.008C149.563 79.048 149.392 78.344 149.051 77.896C148.71 77.4267 148.07 77.192 147.131 77.192V76.52C147.814 76.584 148.475 76.616 149.115 76.616C149.734 76.616 150.32 76.584 150.875 76.52C151.451 76.4347 151.974 76.3173 152.443 76.168V79.944C152.998 78.4933 153.766 77.4907 154.747 76.936C155.75 76.36 156.795 76.072 157.883 76.072ZM174.065 76.072C175.43 76.072 176.657 76.3707 177.745 76.968C178.833 77.5653 179.697 78.504 180.337 79.784C180.998 81.064 181.329 82.728 181.329 84.776C181.329 86.824 180.998 88.488 180.337 89.768C179.697 91.0267 178.833 91.9547 177.745 92.552C176.657 93.1493 175.43 93.448 174.065 93.448C172.721 93.448 171.494 93.1493 170.385 92.552C169.297 91.9547 168.422 91.0267 167.761 89.768C167.121 88.488 166.801 86.824 166.801 84.776C166.801 82.728 167.121 81.064 167.761 79.784C168.422 78.504 169.297 77.5653 170.385 76.968C171.494 76.3707 172.721 76.072 174.065 76.072ZM174.065 76.712C172.849 76.712 171.846 77.3413 171.057 78.6C170.289 79.8587 169.905 81.9173 169.905 84.776C169.905 87.6347 170.289 89.6933 171.057 90.952C171.846 92.1893 172.849 92.808 174.065 92.808C175.281 92.808 176.273 92.1893 177.041 90.952C177.83 89.6933 178.225 87.6347 178.225 84.776C178.225 81.9173 177.83 79.8587 177.041 78.6C176.273 77.3413 175.281 76.712 174.065 76.712ZM189.484 76.072C190.337 76.072 191.063 76.2107 191.66 76.488C192.257 76.7653 192.695 77.0213 192.972 77.256C193.676 77.832 194.103 77.448 194.252 76.104H194.988C194.945 76.7013 194.913 77.416 194.892 78.248C194.871 79.0587 194.86 80.1573 194.86 81.544H194.124C193.996 80.7547 193.772 79.9867 193.452 79.24C193.153 78.4933 192.705 77.8853 192.108 77.416C191.511 76.9253 190.732 76.68 189.772 76.68C189.025 76.68 188.396 76.8933 187.884 77.32C187.393 77.7253 187.148 78.3333 187.148 79.144C187.148 79.784 187.34 80.3387 187.724 80.808C188.108 81.256 188.609 81.6827 189.228 82.088C189.847 82.472 190.519 82.8987 191.244 83.368C192.055 83.88 192.791 84.4027 193.452 84.936C194.113 85.4693 194.636 86.056 195.02 86.696C195.425 87.336 195.628 88.0933 195.628 88.968C195.628 89.9493 195.372 90.7707 194.86 91.432C194.348 92.0933 193.676 92.5947 192.844 92.936C192.033 93.2773 191.137 93.448 190.156 93.448C189.687 93.448 189.239 93.4053 188.812 93.32C188.407 93.256 188.012 93.1493 187.628 93C187.415 92.8933 187.191 92.7653 186.956 92.616C186.743 92.4667 186.529 92.3067 186.316 92.136C186.103 91.9653 185.911 91.976 185.74 92.168C185.569 92.3387 185.441 92.6907 185.356 93.224H184.62C184.663 92.5413 184.695 91.7093 184.716 90.728C184.737 89.7467 184.748 88.4453 184.748 86.824H185.484C185.633 88.0187 185.847 89.064 186.124 89.96C186.401 90.856 186.839 91.56 187.436 92.072C188.033 92.5627 188.865 92.808 189.932 92.808C190.359 92.808 190.785 92.712 191.212 92.52C191.66 92.328 192.033 92.008 192.332 91.56C192.631 91.112 192.78 90.5147 192.78 89.768C192.78 88.8293 192.439 88.0613 191.756 87.464C191.073 86.8667 190.209 86.2373 189.164 85.576C188.396 85.0853 187.671 84.5947 186.988 84.104C186.327 83.6133 185.783 83.0587 185.356 82.44C184.951 81.8213 184.748 81.0747 184.748 80.2C184.748 79.24 184.961 78.4613 185.388 77.864C185.836 77.2453 186.423 76.7973 187.148 76.52C187.873 76.2213 188.652 76.072 189.484 76.072ZM203.093 67.944V79.912C203.647 78.4613 204.415 77.4587 205.397 76.904C206.399 76.3493 207.445 76.072 208.533 76.072C209.343 76.072 210.015 76.1787 210.549 76.392C211.103 76.6053 211.562 76.904 211.925 77.288C212.33 77.7147 212.618 78.248 212.789 78.888C212.959 79.528 213.045 80.392 213.045 81.48V90.024C213.045 90.92 213.226 91.528 213.589 91.848C213.973 92.168 214.602 92.328 215.477 92.328V93C215.114 92.9787 214.559 92.9573 213.813 92.936C213.066 92.8933 212.341 92.872 211.637 92.872C210.933 92.872 210.239 92.8933 209.557 92.936C208.895 92.9573 208.394 92.9787 208.053 93V92.328C208.821 92.328 209.365 92.168 209.685 91.848C210.005 91.528 210.165 90.92 210.165 90.024V80.776C210.165 80.1147 210.111 79.5067 210.005 78.952C209.898 78.3973 209.653 77.9493 209.269 77.608C208.906 77.2667 208.341 77.096 207.573 77.096C206.698 77.096 205.919 77.3413 205.237 77.832C204.575 78.3227 204.053 79.0053 203.669 79.88C203.285 80.7547 203.093 81.7573 203.093 82.888V90.024C203.093 90.92 203.253 91.528 203.573 91.848C203.893 92.168 204.437 92.328 205.205 92.328V93C204.863 92.9787 204.351 92.9573 203.669 92.936C203.007 92.8933 202.325 92.872 201.621 92.872C200.917 92.872 200.191 92.8933 199.445 92.936C198.698 92.9573 198.143 92.9787 197.781 93V92.328C198.655 92.328 199.274 92.168 199.637 91.848C200.021 91.528 200.213 90.92 200.213 90.024V71.784C200.213 70.824 200.042 70.12 199.701 69.672C199.359 69.2027 198.719 68.968 197.781 68.968V68.296C198.463 68.36 199.125 68.392 199.765 68.392C200.383 68.392 200.97 68.36 201.525 68.296C202.101 68.2107 202.623 68.0933 203.093 67.944ZM220.529 68.52C221.084 68.52 221.564 68.7227 221.969 69.128C222.374 69.5333 222.577 70.0133 222.577 70.568C222.577 71.1227 222.374 71.6027 221.969 72.008C221.564 72.4133 221.084 72.616 220.529 72.616C219.974 72.616 219.494 72.4133 219.089 72.008C218.684 71.6027 218.481 71.1227 218.481 70.568C218.481 70.0133 218.684 69.5333 219.089 69.128C219.494 68.7227 219.974 68.52 220.529 68.52ZM222.193 76.168V90.024C222.193 90.92 222.374 91.528 222.737 91.848C223.121 92.168 223.75 92.328 224.625 92.328V93C224.262 92.9787 223.708 92.9573 222.961 92.936C222.236 92.8933 221.5 92.872 220.753 92.872C220.028 92.872 219.292 92.8933 218.545 92.936C217.798 92.9573 217.244 92.9787 216.881 93V92.328C217.756 92.328 218.374 92.168 218.737 91.848C219.121 91.528 219.313 90.92 219.313 90.024V80.008C219.313 79.048 219.142 78.344 218.801 77.896C218.46 77.4267 217.82 77.192 216.881 77.192V76.52C217.564 76.584 218.225 76.616 218.865 76.616C219.484 76.616 220.07 76.584 220.625 76.52C221.201 76.4347 221.724 76.3173 222.193 76.168ZM231.408 71.208V76.552H236.144V77.192H231.408V89.576C231.408 90.5787 231.589 91.2827 231.952 91.688C232.315 92.0933 232.816 92.296 233.456 92.296C234.096 92.296 234.651 92.04 235.12 91.528C235.589 90.9947 235.995 90.1093 236.336 88.872L236.976 89.032C236.763 90.2693 236.336 91.3147 235.696 92.168C235.077 93.0213 234.117 93.448 232.816 93.448C232.091 93.448 231.493 93.352 231.024 93.16C230.555 92.9893 230.139 92.7333 229.776 92.392C229.307 91.9013 228.976 91.3147 228.784 90.632C228.613 89.9493 228.528 89.0427 228.528 87.912V77.192H225.456V76.552H228.528V71.656C229.061 71.6347 229.573 71.592 230.064 71.528C230.555 71.464 231.003 71.3573 231.408 71.208ZM242.113 93.224C241.238 93.224 240.481 93.064 239.841 92.744C239.201 92.4027 238.71 91.9333 238.369 91.336C238.049 90.7387 237.889 90.0453 237.889 89.256C237.889 88.3173 238.102 87.5493 238.529 86.952C238.977 86.3547 239.542 85.8747 240.225 85.512C240.907 85.1493 241.622 84.8507 242.369 84.616C243.137 84.36 243.862 84.1253 244.545 83.912C245.227 83.6773 245.782 83.4107 246.209 83.112C246.657 82.8133 246.881 82.4187 246.881 81.928V79.944C246.881 79.048 246.742 78.3653 246.465 77.896C246.209 77.4267 245.857 77.1173 245.409 76.968C244.961 76.7973 244.459 76.712 243.905 76.712C243.371 76.712 242.795 76.7867 242.177 76.936C241.579 77.0853 241.099 77.3947 240.737 77.864C241.142 77.9493 241.494 78.1627 241.793 78.504C242.091 78.8453 242.241 79.2827 242.241 79.816C242.241 80.3493 242.07 80.776 241.729 81.096C241.387 81.3947 240.95 81.544 240.417 81.544C239.798 81.544 239.339 81.352 239.041 80.968C238.763 80.5627 238.625 80.1147 238.625 79.624C238.625 79.0693 238.763 78.6213 239.041 78.28C239.318 77.9387 239.67 77.6187 240.097 77.32C240.587 76.9787 241.217 76.6907 241.985 76.456C242.774 76.2 243.659 76.072 244.641 76.072C245.515 76.072 246.262 76.1787 246.881 76.392C247.499 76.584 248.011 76.872 248.417 77.256C248.971 77.768 249.334 78.3973 249.505 79.144C249.675 79.8693 249.761 80.744 249.761 81.768V90.664C249.761 91.1973 249.835 91.5813 249.985 91.816C250.155 92.0507 250.411 92.168 250.753 92.168C250.987 92.168 251.211 92.1147 251.425 92.008C251.638 91.9013 251.894 91.7307 252.193 91.496L252.545 92.04C252.097 92.3813 251.67 92.6693 251.265 92.904C250.859 93.1173 250.315 93.224 249.633 93.224C249.014 93.224 248.502 93.1173 248.097 92.904C247.691 92.6907 247.382 92.3813 247.169 91.976C246.977 91.5493 246.881 91.016 246.881 90.376C246.305 91.336 245.611 92.0507 244.801 92.52C244.011 92.9893 243.115 93.224 242.113 93.224ZM243.265 91.944C243.969 91.944 244.619 91.7413 245.217 91.336C245.835 90.9307 246.39 90.3227 246.881 89.512V83.24C246.625 83.6027 246.251 83.912 245.761 84.168C245.27 84.4027 244.737 84.648 244.161 84.904C243.585 85.1387 243.03 85.4267 242.497 85.768C241.985 86.088 241.558 86.5147 241.217 87.048C240.875 87.5813 240.705 88.2747 240.705 89.128C240.705 89.9813 240.929 90.664 241.377 91.176C241.846 91.688 242.475 91.944 243.265 91.944Z" fill="#010508"/>
</svg>
