<svg width="354" height="324" viewBox="0 0 354 324" fill="none" xmlns="http://www.w3.org/2000/svg">
<circle cx="177" cy="162" r="159" stroke="#BEA79B" stroke-width="6"/>
<path d="M44.3929 187.55V187.91C43.9849 187.922 43.6729 187.97 43.4569 188.054C43.2529 188.126 43.1149 188.27 43.0429 188.486C42.9709 188.69 42.9349 189.014 42.9349 189.458V198.386C42.9349 198.818 42.9709 199.142 43.0429 199.358C43.1149 199.574 43.2529 199.718 43.4569 199.79C43.6729 199.862 43.9849 199.91 44.3929 199.934V200.294C44.1169 200.27 43.7689 200.258 43.3489 200.258C42.9409 200.246 42.5269 200.24 42.1069 200.24C41.6389 200.24 41.2009 200.246 40.7929 200.258C40.3849 200.258 40.0549 200.27 39.8029 200.294V199.934C40.2109 199.91 40.5169 199.862 40.7209 199.79C40.9369 199.718 41.0809 199.574 41.1529 199.358C41.2249 199.142 41.2609 198.818 41.2609 198.386V189.458C41.2609 189.014 41.2249 188.69 41.1529 188.486C41.0809 188.27 40.9369 188.126 40.7209 188.054C40.5169 187.97 40.2109 187.922 39.8029 187.91V187.55C40.0549 187.562 40.3849 187.574 40.7929 187.586C41.2009 187.598 41.6389 187.604 42.1069 187.604C42.5269 187.604 42.9409 187.598 43.3489 187.586C43.7689 187.574 44.1169 187.562 44.3929 187.55ZM48.8026 190.772C49.2826 190.772 49.6906 190.85 50.0266 191.006C50.3626 191.162 50.6086 191.306 50.7646 191.438C51.1606 191.762 51.4006 191.546 51.4846 190.79H51.8986C51.8746 191.126 51.8566 191.528 51.8446 191.996C51.8326 192.452 51.8266 193.07 51.8266 193.85H51.4126C51.3406 193.406 51.2146 192.974 51.0346 192.554C50.8666 192.134 50.6146 191.792 50.2786 191.528C49.9426 191.252 49.5046 191.114 48.9646 191.114C48.5446 191.114 48.1906 191.234 47.9026 191.474C47.6266 191.702 47.4886 192.044 47.4886 192.5C47.4886 192.86 47.5966 193.172 47.8126 193.436C48.0286 193.688 48.3106 193.928 48.6586 194.156C49.0066 194.372 49.3846 194.612 49.7926 194.876C50.2486 195.164 50.6626 195.458 51.0346 195.758C51.4066 196.058 51.7006 196.388 51.9166 196.748C52.1446 197.108 52.2586 197.534 52.2586 198.026C52.2586 198.578 52.1146 199.04 51.8266 199.412C51.5386 199.784 51.1606 200.066 50.6926 200.258C50.2366 200.45 49.7326 200.546 49.1806 200.546C48.9166 200.546 48.6646 200.522 48.4246 200.474C48.1966 200.438 47.9746 200.378 47.7586 200.294C47.6386 200.234 47.5126 200.162 47.3806 200.078C47.2606 199.994 47.1406 199.904 47.0206 199.808C46.9006 199.712 46.7926 199.718 46.6966 199.826C46.6006 199.922 46.5286 200.12 46.4806 200.42H46.0666C46.0906 200.036 46.1086 199.568 46.1206 199.016C46.1326 198.464 46.1386 197.732 46.1386 196.82H46.5526C46.6366 197.492 46.7566 198.08 46.9126 198.584C47.0686 199.088 47.3146 199.484 47.6506 199.772C47.9866 200.048 48.4546 200.186 49.0546 200.186C49.2946 200.186 49.5346 200.132 49.7746 200.024C50.0266 199.916 50.2366 199.736 50.4046 199.484C50.5726 199.232 50.6566 198.896 50.6566 198.476C50.6566 197.948 50.4646 197.516 50.0806 197.18C49.6966 196.844 49.2106 196.49 48.6226 196.118C48.1906 195.842 47.7826 195.566 47.3986 195.29C47.0266 195.014 46.7206 194.702 46.4806 194.354C46.2526 194.006 46.1386 193.586 46.1386 193.094C46.1386 192.554 46.2586 192.116 46.4986 191.78C46.7506 191.432 47.0806 191.18 47.4886 191.024C47.8966 190.856 48.3346 190.772 48.8026 190.772ZM56.4934 186.182V198.62C56.4934 199.124 56.5954 199.466 56.7994 199.646C57.0154 199.826 57.3694 199.916 57.8614 199.916V200.294C57.6574 200.282 57.3454 200.27 56.9254 200.258C56.5174 200.234 56.1034 200.222 55.6834 200.222C55.2754 200.222 54.8614 200.234 54.4414 200.258C54.0214 200.27 53.7094 200.282 53.5054 200.294V199.916C53.9974 199.916 54.3454 199.826 54.5494 199.646C54.7654 199.466 54.8734 199.124 54.8734 198.62V188.342C54.8734 187.802 54.7774 187.406 54.5854 187.154C54.3934 186.89 54.0334 186.758 53.5054 186.758V186.38C53.8894 186.416 54.2614 186.434 54.6214 186.434C54.9694 186.434 55.2994 186.416 55.6114 186.38C55.9354 186.332 56.2294 186.266 56.4934 186.182ZM61.3378 200.42C60.8458 200.42 60.4198 200.33 60.0598 200.15C59.6998 199.958 59.4238 199.694 59.2318 199.358C59.0518 199.022 58.9618 198.632 58.9618 198.188C58.9618 197.66 59.0818 197.228 59.3218 196.892C59.5738 196.556 59.8918 196.286 60.2758 196.082C60.6598 195.878 61.0618 195.71 61.4818 195.578C61.9138 195.434 62.3218 195.302 62.7058 195.182C63.0898 195.05 63.4018 194.9 63.6418 194.732C63.8938 194.564 64.0198 194.342 64.0198 194.066V192.95C64.0198 192.446 63.9418 192.062 63.7858 191.798C63.6418 191.534 63.4438 191.36 63.1918 191.276C62.9398 191.18 62.6578 191.132 62.3458 191.132C62.0458 191.132 61.7218 191.174 61.3738 191.258C61.0378 191.342 60.7678 191.516 60.5638 191.78C60.7918 191.828 60.9898 191.948 61.1578 192.14C61.3258 192.332 61.4098 192.578 61.4098 192.878C61.4098 193.178 61.3138 193.418 61.1218 193.598C60.9298 193.766 60.6838 193.85 60.3838 193.85C60.0358 193.85 59.7778 193.742 59.6098 193.526C59.4538 193.298 59.3758 193.046 59.3758 192.77C59.3758 192.458 59.4538 192.206 59.6098 192.014C59.7658 191.822 59.9638 191.642 60.2038 191.474C60.4798 191.282 60.8338 191.12 61.2658 190.988C61.7098 190.844 62.2078 190.772 62.7598 190.772C63.2518 190.772 63.6718 190.832 64.0198 190.952C64.3678 191.06 64.6558 191.222 64.8838 191.438C65.1958 191.726 65.3998 192.08 65.4958 192.5C65.5918 192.908 65.6398 193.4 65.6398 193.976V198.98C65.6398 199.28 65.6818 199.496 65.7658 199.628C65.8618 199.76 66.0058 199.826 66.1978 199.826C66.3298 199.826 66.4558 199.796 66.5758 199.736C66.6958 199.676 66.8398 199.58 67.0078 199.448L67.2058 199.754C66.9538 199.946 66.7138 200.108 66.4858 200.24C66.2578 200.36 65.9518 200.42 65.5678 200.42C65.2198 200.42 64.9318 200.36 64.7038 200.24C64.4758 200.12 64.3018 199.946 64.1818 199.718C64.0738 199.478 64.0198 199.178 64.0198 198.818C63.6958 199.358 63.3058 199.76 62.8498 200.024C62.4058 200.288 61.9018 200.42 61.3378 200.42ZM61.9858 199.7C62.3818 199.7 62.7478 199.586 63.0838 199.358C63.4318 199.13 63.7438 198.788 64.0198 198.332V194.804C63.8758 195.008 63.6658 195.182 63.3898 195.326C63.1138 195.458 62.8138 195.596 62.4898 195.74C62.1658 195.872 61.8538 196.034 61.5538 196.226C61.2658 196.406 61.0258 196.646 60.8338 196.946C60.6418 197.246 60.5458 197.636 60.5458 198.116C60.5458 198.596 60.6718 198.98 60.9238 199.268C61.1878 199.556 61.5418 199.7 61.9858 199.7ZM73.7946 190.772C74.2506 190.772 74.6286 190.832 74.9286 190.952C75.2406 191.072 75.4986 191.24 75.7026 191.456C75.9306 191.696 76.0926 191.996 76.1886 192.356C76.2846 192.716 76.3326 193.202 76.3326 193.814V198.62C76.3326 199.124 76.4346 199.466 76.6386 199.646C76.8546 199.826 77.2086 199.916 77.7006 199.916V200.294C77.4966 200.282 77.1846 200.27 76.7646 200.258C76.3446 200.234 75.9366 200.222 75.5406 200.222C75.1446 200.222 74.7546 200.234 74.3706 200.258C73.9986 200.27 73.7166 200.282 73.5246 200.294V199.916C73.9566 199.916 74.2626 199.826 74.4426 199.646C74.6226 199.466 74.7126 199.124 74.7126 198.62V193.418C74.7126 193.046 74.6826 192.704 74.6226 192.392C74.5626 192.08 74.4246 191.828 74.2086 191.636C74.0046 191.444 73.6866 191.348 73.2546 191.348C72.7506 191.348 72.3066 191.492 71.9226 191.78C71.5506 192.068 71.2566 192.464 71.0406 192.968C70.8366 193.46 70.7346 194.012 70.7346 194.624V198.62C70.7346 199.124 70.8246 199.466 71.0046 199.646C71.1846 199.826 71.4906 199.916 71.9226 199.916V200.294C71.7306 200.282 71.4426 200.27 71.0586 200.258C70.6866 200.234 70.3026 200.222 69.9066 200.222C69.5106 200.222 69.1026 200.234 68.6826 200.258C68.2626 200.27 67.9506 200.282 67.7466 200.294V199.916C68.2386 199.916 68.5866 199.826 68.7906 199.646C69.0066 199.466 69.1146 199.124 69.1146 198.62V192.986C69.1146 192.446 69.0186 192.05 68.8266 191.798C68.6346 191.534 68.2746 191.402 67.7466 191.402V191.024C68.1306 191.06 68.5026 191.078 68.8626 191.078C69.2106 191.078 69.5406 191.06 69.8526 191.024C70.1766 190.976 70.4706 190.91 70.7346 190.826V192.95C71.0466 192.134 71.4786 191.57 72.0306 191.258C72.5946 190.934 73.1826 190.772 73.7946 190.772ZM86.6768 186.182V198.332C86.6768 198.872 86.7728 199.274 86.9648 199.538C87.1688 199.79 87.5288 199.916 88.0448 199.916V200.294C87.6728 200.258 87.3008 200.24 86.9288 200.24C86.5808 200.24 86.2448 200.258 85.9208 200.294C85.6088 200.33 85.3208 200.396 85.0568 200.492V188.342C85.0568 187.802 84.9608 187.406 84.7688 187.154C84.5768 186.89 84.2168 186.758 83.6888 186.758V186.38C84.0728 186.416 84.4448 186.434 84.8048 186.434C85.1528 186.434 85.4828 186.416 85.7948 186.38C86.1188 186.332 86.4128 186.266 86.6768 186.182ZM82.8968 190.772C83.4248 190.772 83.9168 190.898 84.3728 191.15C84.8408 191.402 85.1528 191.834 85.3088 192.446L85.0748 192.626C84.9068 192.122 84.6428 191.756 84.2828 191.528C83.9348 191.3 83.5208 191.186 83.0408 191.186C82.3328 191.186 81.7388 191.552 81.2588 192.284C80.7908 193.016 80.5628 194.144 80.5748 195.668C80.5748 196.64 80.6648 197.45 80.8448 198.098C81.0368 198.734 81.3128 199.214 81.6728 199.538C82.0448 199.85 82.4948 200.006 83.0228 200.006C83.5268 200.006 83.9828 199.79 84.3908 199.358C84.7988 198.926 85.0448 198.29 85.1288 197.45L85.3448 197.702C85.2488 198.614 84.9548 199.316 84.4628 199.808C83.9828 200.3 83.3288 200.546 82.5008 200.546C81.7568 200.546 81.1028 200.366 80.5388 200.006C79.9868 199.646 79.5608 199.106 79.2608 198.386C78.9728 197.666 78.8288 196.76 78.8288 195.668C78.8288 194.576 79.0148 193.67 79.3868 192.95C79.7708 192.218 80.2688 191.672 80.8808 191.312C81.5048 190.952 82.1768 190.772 82.8968 190.772ZM107.828 187.55V187.91C107.42 187.922 107.108 187.97 106.892 188.054C106.688 188.126 106.55 188.27 106.478 188.486C106.406 188.69 106.37 189.014 106.37 189.458V198.386C106.37 198.818 106.406 199.142 106.478 199.358C106.55 199.574 106.688 199.718 106.892 199.79C107.108 199.862 107.42 199.91 107.828 199.934V200.294C107.552 200.27 107.204 200.258 106.784 200.258C106.376 200.246 105.962 200.24 105.542 200.24C105.074 200.24 104.636 200.246 104.228 200.258C103.82 200.258 103.49 200.27 103.238 200.294V199.934C103.646 199.91 103.952 199.862 104.156 199.79C104.372 199.718 104.516 199.574 104.588 199.358C104.66 199.142 104.696 198.818 104.696 198.386V188.486L104.768 188.54L100.358 200.384H100.07L95.5343 188.702V198.206C95.5343 198.638 95.5703 198.98 95.6423 199.232C95.7263 199.472 95.8823 199.646 96.1103 199.754C96.3503 199.85 96.7043 199.91 97.1723 199.934V200.294C96.9563 200.27 96.6743 200.258 96.3263 200.258C95.9783 200.246 95.6483 200.24 95.3363 200.24C95.0363 200.24 94.7303 200.246 94.4183 200.258C94.1183 200.258 93.8663 200.27 93.6623 200.294V199.934C94.0703 199.91 94.3763 199.85 94.5803 199.754C94.7963 199.646 94.9403 199.472 95.0123 199.232C95.0843 198.98 95.1203 198.638 95.1203 198.206V189.458C95.1203 189.014 95.0843 188.69 95.0123 188.486C94.9403 188.27 94.7963 188.126 94.5803 188.054C94.3763 187.97 94.0703 187.922 93.6623 187.91V187.55C93.8663 187.562 94.1183 187.574 94.4183 187.586C94.7303 187.598 95.0363 187.604 95.3363 187.604C95.6003 187.604 95.8703 187.598 96.1463 187.586C96.4343 187.574 96.6743 187.562 96.8663 187.55L100.952 198.314L100.646 198.458L104.696 187.604C104.84 187.604 104.978 187.604 105.11 187.604C105.254 187.604 105.398 187.604 105.542 187.604C105.962 187.604 106.376 187.598 106.784 187.586C107.204 187.574 107.552 187.562 107.828 187.55ZM113.202 190.772C113.97 190.772 114.66 190.94 115.272 191.276C115.884 191.612 116.37 192.14 116.73 192.86C117.102 193.58 117.288 194.516 117.288 195.668C117.288 196.82 117.102 197.756 116.73 198.476C116.37 199.184 115.884 199.706 115.272 200.042C114.66 200.378 113.97 200.546 113.202 200.546C112.446 200.546 111.756 200.378 111.132 200.042C110.52 199.706 110.028 199.184 109.656 198.476C109.296 197.756 109.116 196.82 109.116 195.668C109.116 194.516 109.296 193.58 109.656 192.86C110.028 192.14 110.52 191.612 111.132 191.276C111.756 190.94 112.446 190.772 113.202 190.772ZM113.202 191.132C112.518 191.132 111.954 191.486 111.51 192.194C111.078 192.902 110.862 194.06 110.862 195.668C110.862 197.276 111.078 198.434 111.51 199.142C111.954 199.838 112.518 200.186 113.202 200.186C113.886 200.186 114.444 199.838 114.876 199.142C115.32 198.434 115.542 197.276 115.542 195.668C115.542 194.06 115.32 192.902 114.876 192.194C114.444 191.486 113.886 191.132 113.202 191.132ZM124.593 190.772C125.013 190.772 125.379 190.832 125.691 190.952C126.003 191.072 126.261 191.24 126.465 191.456C126.693 191.696 126.849 192.008 126.933 192.392C127.017 192.776 127.059 193.25 127.059 193.814V198.62C127.059 199.124 127.161 199.466 127.365 199.646C127.581 199.826 127.935 199.916 128.427 199.916V200.294C128.223 200.282 127.911 200.27 127.491 200.258C127.071 200.234 126.663 200.222 126.267 200.222C125.871 200.222 125.481 200.234 125.097 200.258C124.725 200.27 124.443 200.282 124.251 200.294V199.916C124.683 199.916 124.989 199.826 125.169 199.646C125.349 199.466 125.439 199.124 125.439 198.62V193.418C125.439 193.046 125.415 192.704 125.367 192.392C125.319 192.08 125.199 191.828 125.007 191.636C124.815 191.444 124.503 191.348 124.071 191.348C123.603 191.348 123.183 191.492 122.811 191.78C122.451 192.068 122.163 192.464 121.947 192.968C121.743 193.46 121.641 194.012 121.641 194.624V198.62C121.641 199.124 121.731 199.466 121.911 199.646C122.091 199.826 122.397 199.916 122.829 199.916V200.294C122.637 200.282 122.349 200.27 121.965 200.258C121.593 200.234 121.209 200.222 120.813 200.222C120.417 200.222 120.009 200.234 119.589 200.258C119.169 200.27 118.857 200.282 118.653 200.294V199.916C119.145 199.916 119.493 199.826 119.697 199.646C119.913 199.466 120.021 199.124 120.021 198.62V192.986C120.021 192.446 119.925 192.05 119.733 191.798C119.541 191.534 119.181 191.402 118.653 191.402V191.024C119.037 191.06 119.409 191.078 119.769 191.078C120.117 191.078 120.447 191.06 120.759 191.024C121.083 190.976 121.377 190.91 121.641 190.826V192.95C121.953 192.17 122.379 191.612 122.919 191.276C123.459 190.94 124.017 190.772 124.593 190.772ZM130.011 190.772C130.431 190.772 130.797 190.832 131.109 190.952C131.421 191.072 131.679 191.24 131.883 191.456C132.111 191.696 132.267 192.008 132.351 192.392C132.435 192.776 132.477 193.25 132.477 193.814V198.62C132.477 199.124 132.579 199.466 132.783 199.646C132.999 199.826 133.353 199.916 133.845 199.916V200.294C133.641 200.282 133.329 200.27 132.909 200.258C132.489 200.234 132.081 200.222 131.685 200.222C131.289 200.222 130.899 200.234 130.515 200.258C130.143 200.27 129.861 200.282 129.669 200.294V199.916C130.101 199.916 130.407 199.826 130.587 199.646C130.767 199.466 130.857 199.124 130.857 198.62V193.418C130.857 193.046 130.833 192.704 130.785 192.392C130.737 192.08 130.617 191.828 130.425 191.636C130.233 191.444 129.921 191.348 129.489 191.348C129.021 191.348 128.601 191.492 128.229 191.78C127.869 192.068 127.581 192.458 127.365 192.95C127.161 193.442 127.059 193.994 127.059 194.606L127.005 192.932C127.329 192.104 127.767 191.54 128.319 191.24C128.871 190.928 129.435 190.772 130.011 190.772ZM139.005 190.772C140.061 190.772 140.883 191.096 141.471 191.744C142.071 192.38 142.371 193.376 142.371 194.732H136.017L135.999 194.39H140.643C140.667 193.802 140.619 193.262 140.499 192.77C140.379 192.266 140.187 191.864 139.923 191.564C139.671 191.264 139.341 191.114 138.933 191.114C138.381 191.114 137.889 191.39 137.457 191.942C137.037 192.494 136.785 193.37 136.701 194.57L136.755 194.642C136.731 194.822 136.713 195.02 136.701 195.236C136.689 195.452 136.683 195.668 136.683 195.884C136.683 196.7 136.815 197.402 137.079 197.99C137.343 198.578 137.685 199.028 138.105 199.34C138.537 199.64 138.981 199.79 139.437 199.79C139.797 199.79 140.139 199.736 140.463 199.628C140.787 199.508 141.087 199.316 141.363 199.052C141.639 198.788 141.879 198.434 142.083 197.99L142.443 198.134C142.311 198.53 142.095 198.914 141.795 199.286C141.495 199.658 141.117 199.964 140.661 200.204C140.205 200.432 139.677 200.546 139.077 200.546C138.213 200.546 137.469 200.348 136.845 199.952C136.233 199.556 135.759 199.01 135.423 198.314C135.099 197.606 134.937 196.796 134.937 195.884C134.937 194.828 135.105 193.922 135.441 193.166C135.777 192.398 136.251 191.81 136.863 191.402C137.475 190.982 138.189 190.772 139.005 190.772ZM149.785 190.772C150.241 190.772 150.619 190.832 150.919 190.952C151.231 191.072 151.489 191.24 151.693 191.456C151.921 191.696 152.083 191.996 152.179 192.356C152.275 192.716 152.323 193.202 152.323 193.814V198.62C152.323 199.124 152.425 199.466 152.629 199.646C152.845 199.826 153.199 199.916 153.691 199.916V200.294C153.487 200.282 153.175 200.27 152.755 200.258C152.335 200.234 151.927 200.222 151.531 200.222C151.135 200.222 150.745 200.234 150.361 200.258C149.989 200.27 149.707 200.282 149.515 200.294V199.916C149.947 199.916 150.253 199.826 150.433 199.646C150.613 199.466 150.703 199.124 150.703 198.62V193.418C150.703 193.046 150.673 192.704 150.613 192.392C150.553 192.08 150.415 191.828 150.199 191.636C149.995 191.444 149.677 191.348 149.245 191.348C148.741 191.348 148.297 191.492 147.913 191.78C147.541 192.068 147.247 192.464 147.031 192.968C146.827 193.46 146.725 194.012 146.725 194.624V198.62C146.725 199.124 146.815 199.466 146.995 199.646C147.175 199.826 147.481 199.916 147.913 199.916V200.294C147.721 200.282 147.433 200.27 147.049 200.258C146.677 200.234 146.293 200.222 145.897 200.222C145.501 200.222 145.093 200.234 144.673 200.258C144.253 200.27 143.941 200.282 143.737 200.294V199.916C144.229 199.916 144.577 199.826 144.781 199.646C144.997 199.466 145.105 199.124 145.105 198.62V192.986C145.105 192.446 145.009 192.05 144.817 191.798C144.625 191.534 144.265 191.402 143.737 191.402V191.024C144.121 191.06 144.493 191.078 144.853 191.078C145.201 191.078 145.531 191.06 145.843 191.024C146.167 190.976 146.461 190.91 146.725 190.826V192.95C147.037 192.134 147.469 191.57 148.021 191.258C148.585 190.934 149.173 190.772 149.785 190.772ZM157.375 188.036V191.042H160.039V191.402H157.375V198.368C157.375 198.932 157.477 199.328 157.681 199.556C157.885 199.784 158.167 199.898 158.527 199.898C158.887 199.898 159.199 199.754 159.463 199.466C159.727 199.166 159.955 198.668 160.147 197.972L160.507 198.062C160.387 198.758 160.147 199.346 159.787 199.826C159.439 200.306 158.899 200.546 158.167 200.546C157.759 200.546 157.423 200.492 157.159 200.384C156.895 200.288 156.661 200.144 156.457 199.952C156.193 199.676 156.007 199.346 155.899 198.962C155.803 198.578 155.755 198.068 155.755 197.432V191.402H154.027V191.042H155.755V188.288C156.055 188.276 156.343 188.252 156.619 188.216C156.895 188.18 157.147 188.12 157.375 188.036ZM164.062 190.772C164.542 190.772 164.95 190.85 165.286 191.006C165.622 191.162 165.868 191.306 166.024 191.438C166.42 191.762 166.66 191.546 166.744 190.79H167.158C167.134 191.126 167.116 191.528 167.104 191.996C167.092 192.452 167.086 193.07 167.086 193.85H166.672C166.6 193.406 166.474 192.974 166.294 192.554C166.126 192.134 165.874 191.792 165.538 191.528C165.202 191.252 164.764 191.114 164.224 191.114C163.804 191.114 163.45 191.234 163.162 191.474C162.886 191.702 162.748 192.044 162.748 192.5C162.748 192.86 162.856 193.172 163.072 193.436C163.288 193.688 163.57 193.928 163.918 194.156C164.266 194.372 164.644 194.612 165.052 194.876C165.508 195.164 165.922 195.458 166.294 195.758C166.666 196.058 166.96 196.388 167.176 196.748C167.404 197.108 167.518 197.534 167.518 198.026C167.518 198.578 167.374 199.04 167.086 199.412C166.798 199.784 166.42 200.066 165.952 200.258C165.496 200.45 164.992 200.546 164.44 200.546C164.176 200.546 163.924 200.522 163.684 200.474C163.456 200.438 163.234 200.378 163.018 200.294C162.898 200.234 162.772 200.162 162.64 200.078C162.52 199.994 162.4 199.904 162.28 199.808C162.16 199.712 162.052 199.718 161.956 199.826C161.86 199.922 161.788 200.12 161.74 200.42H161.326C161.35 200.036 161.368 199.568 161.38 199.016C161.392 198.464 161.398 197.732 161.398 196.82H161.812C161.896 197.492 162.016 198.08 162.172 198.584C162.328 199.088 162.574 199.484 162.91 199.772C163.246 200.048 163.714 200.186 164.314 200.186C164.554 200.186 164.794 200.132 165.034 200.024C165.286 199.916 165.496 199.736 165.664 199.484C165.832 199.232 165.916 198.896 165.916 198.476C165.916 197.948 165.724 197.516 165.34 197.18C164.956 196.844 164.47 196.49 163.882 196.118C163.45 195.842 163.042 195.566 162.658 195.29C162.286 195.014 161.98 194.702 161.74 194.354C161.512 194.006 161.398 193.586 161.398 193.094C161.398 192.554 161.518 192.116 161.758 191.78C162.01 191.432 162.34 191.18 162.748 191.024C163.156 190.856 163.594 190.772 164.062 190.772ZM182.59 187.55C182.542 188.006 182.506 188.45 182.482 188.882C182.47 189.302 182.464 189.626 182.464 189.854C182.464 190.142 182.47 190.412 182.482 190.664C182.494 190.916 182.506 191.138 182.518 191.33H182.104C182.02 190.49 181.906 189.83 181.762 189.35C181.618 188.858 181.366 188.504 181.006 188.288C180.646 188.072 180.088 187.964 179.332 187.964H178.198C177.79 187.964 177.478 188 177.262 188.072C177.058 188.132 176.92 188.27 176.848 188.486C176.776 188.69 176.74 189.014 176.74 189.458V198.386C176.74 198.818 176.782 199.142 176.866 199.358C176.962 199.574 177.142 199.718 177.406 199.79C177.67 199.862 178.054 199.91 178.558 199.934V200.294C178.246 200.27 177.85 200.258 177.37 200.258C176.89 200.246 176.404 200.24 175.912 200.24C175.444 200.24 175.006 200.246 174.598 200.258C174.19 200.258 173.86 200.27 173.608 200.294V199.934C174.016 199.91 174.322 199.862 174.526 199.79C174.742 199.718 174.886 199.574 174.958 199.358C175.03 199.142 175.066 198.818 175.066 198.386V189.458C175.066 189.014 175.03 188.69 174.958 188.486C174.886 188.27 174.742 188.126 174.526 188.054C174.322 187.97 174.016 187.922 173.608 187.91V187.55C174.052 187.562 174.52 187.574 175.012 187.586C175.504 187.586 175.99 187.592 176.47 187.604C176.95 187.604 177.394 187.604 177.802 187.604C178.222 187.604 178.564 187.604 178.828 187.604C179.38 187.604 180.004 187.604 180.7 187.604C181.408 187.592 182.038 187.574 182.59 187.55ZM179.8 193.886C179.8 193.886 179.8 193.946 179.8 194.066C179.8 194.186 179.8 194.246 179.8 194.246H176.2C176.2 194.246 176.2 194.186 176.2 194.066C176.2 193.946 176.2 193.886 176.2 193.886H179.8ZM180.142 191.51C180.094 192.194 180.07 192.716 180.07 193.076C180.082 193.436 180.088 193.766 180.088 194.066C180.088 194.366 180.094 194.696 180.106 195.056C180.118 195.416 180.148 195.938 180.196 196.622H179.782C179.734 196.238 179.674 195.866 179.602 195.506C179.542 195.134 179.398 194.834 179.17 194.606C178.954 194.366 178.582 194.246 178.054 194.246V193.886C178.45 193.886 178.75 193.808 178.954 193.652C179.17 193.484 179.326 193.274 179.422 193.022C179.518 192.77 179.584 192.512 179.62 192.248C179.656 191.972 179.692 191.726 179.728 191.51H180.142ZM187.592 190.772C188.36 190.772 189.05 190.94 189.662 191.276C190.274 191.612 190.76 192.14 191.12 192.86C191.492 193.58 191.678 194.516 191.678 195.668C191.678 196.82 191.492 197.756 191.12 198.476C190.76 199.184 190.274 199.706 189.662 200.042C189.05 200.378 188.36 200.546 187.592 200.546C186.836 200.546 186.146 200.378 185.522 200.042C184.91 199.706 184.418 199.184 184.046 198.476C183.686 197.756 183.506 196.82 183.506 195.668C183.506 194.516 183.686 193.58 184.046 192.86C184.418 192.14 184.91 191.612 185.522 191.276C186.146 190.94 186.836 190.772 187.592 190.772ZM187.592 191.132C186.908 191.132 186.344 191.486 185.9 192.194C185.468 192.902 185.252 194.06 185.252 195.668C185.252 197.276 185.468 198.434 185.9 199.142C186.344 199.838 186.908 200.186 187.592 200.186C188.276 200.186 188.834 199.838 189.266 199.142C189.71 198.434 189.932 197.276 189.932 195.668C189.932 194.06 189.71 192.902 189.266 192.194C188.834 191.486 188.276 191.132 187.592 191.132ZM198.641 190.772C198.965 190.772 199.247 190.838 199.487 190.97C199.739 191.102 199.931 191.276 200.063 191.492C200.207 191.696 200.279 191.93 200.279 192.194C200.279 192.494 200.183 192.758 199.991 192.986C199.811 193.214 199.565 193.328 199.253 193.328C199.001 193.328 198.779 193.25 198.587 193.094C198.395 192.926 198.299 192.692 198.299 192.392C198.299 192.164 198.359 191.972 198.479 191.816C198.611 191.648 198.755 191.516 198.911 191.42C198.827 191.3 198.701 191.24 198.533 191.24C198.161 191.24 197.819 191.354 197.507 191.582C197.195 191.798 196.931 192.08 196.715 192.428C196.499 192.776 196.331 193.148 196.211 193.544C196.091 193.928 196.031 194.288 196.031 194.624V198.44C196.031 199.028 196.199 199.424 196.535 199.628C196.883 199.82 197.351 199.916 197.939 199.916V200.294C197.663 200.282 197.273 200.27 196.769 200.258C196.265 200.234 195.731 200.222 195.167 200.222C194.759 200.222 194.351 200.234 193.943 200.258C193.547 200.27 193.247 200.282 193.043 200.294V199.916C193.535 199.916 193.883 199.826 194.087 199.646C194.303 199.466 194.411 199.124 194.411 198.62V192.986C194.411 192.446 194.315 192.05 194.123 191.798C193.931 191.534 193.571 191.402 193.043 191.402V191.024C193.427 191.06 193.799 191.078 194.159 191.078C194.507 191.078 194.837 191.06 195.149 191.024C195.473 190.976 195.767 190.91 196.031 190.826V193.076C196.163 192.728 196.349 192.38 196.589 192.032C196.841 191.672 197.141 191.372 197.489 191.132C197.837 190.892 198.221 190.772 198.641 190.772ZM205.082 190.772C206.138 190.772 206.96 191.096 207.548 191.744C208.148 192.38 208.448 193.376 208.448 194.732H202.094L202.076 194.39H206.72C206.744 193.802 206.696 193.262 206.576 192.77C206.456 192.266 206.264 191.864 206 191.564C205.748 191.264 205.418 191.114 205.01 191.114C204.458 191.114 203.966 191.39 203.534 191.942C203.114 192.494 202.862 193.37 202.778 194.57L202.832 194.642C202.808 194.822 202.79 195.02 202.778 195.236C202.766 195.452 202.76 195.668 202.76 195.884C202.76 196.7 202.892 197.402 203.156 197.99C203.42 198.578 203.762 199.028 204.182 199.34C204.614 199.64 205.058 199.79 205.514 199.79C205.874 199.79 206.216 199.736 206.54 199.628C206.864 199.508 207.164 199.316 207.44 199.052C207.716 198.788 207.956 198.434 208.16 197.99L208.52 198.134C208.388 198.53 208.172 198.914 207.872 199.286C207.572 199.658 207.194 199.964 206.738 200.204C206.282 200.432 205.754 200.546 205.154 200.546C204.29 200.546 203.546 200.348 202.922 199.952C202.31 199.556 201.836 199.01 201.5 198.314C201.176 197.606 201.014 196.796 201.014 195.884C201.014 194.828 201.182 193.922 201.518 193.166C201.854 192.398 202.328 191.81 202.94 191.402C203.552 190.982 204.266 190.772 205.082 190.772ZM217.969 191.024V191.384C217.741 191.408 217.531 191.51 217.339 191.69C217.147 191.87 216.967 192.188 216.799 192.644L213.847 200.384C213.799 200.384 213.751 200.384 213.703 200.384C213.655 200.384 213.601 200.384 213.541 200.384L210.229 192.41C210.037 191.942 209.845 191.66 209.653 191.564C209.473 191.456 209.317 191.402 209.185 191.402V191.024C209.425 191.036 209.671 191.054 209.923 191.078C210.187 191.09 210.469 191.096 210.769 191.096C211.141 191.096 211.531 191.09 211.939 191.078C212.359 191.066 212.749 191.048 213.109 191.024V191.402C212.809 191.402 212.539 191.426 212.299 191.474C212.071 191.51 211.921 191.624 211.849 191.816C211.789 192.008 211.849 192.338 212.029 192.806L214.279 198.368L214.171 198.458L216.223 193.076C216.379 192.68 216.439 192.368 216.403 192.14C216.379 191.9 216.259 191.72 216.043 191.6C215.839 191.48 215.521 191.408 215.089 191.384V191.024C215.305 191.036 215.491 191.048 215.647 191.06C215.803 191.06 215.953 191.066 216.097 191.078C216.253 191.078 216.421 191.078 216.601 191.078C216.877 191.078 217.123 191.072 217.339 191.06C217.567 191.048 217.777 191.036 217.969 191.024ZM222.765 190.772C223.821 190.772 224.643 191.096 225.231 191.744C225.831 192.38 226.131 193.376 226.131 194.732H219.777L219.759 194.39H224.403C224.427 193.802 224.379 193.262 224.259 192.77C224.139 192.266 223.947 191.864 223.683 191.564C223.431 191.264 223.101 191.114 222.693 191.114C222.141 191.114 221.649 191.39 221.217 191.942C220.797 192.494 220.545 193.37 220.461 194.57L220.515 194.642C220.491 194.822 220.473 195.02 220.461 195.236C220.449 195.452 220.443 195.668 220.443 195.884C220.443 196.7 220.575 197.402 220.839 197.99C221.103 198.578 221.445 199.028 221.865 199.34C222.297 199.64 222.741 199.79 223.197 199.79C223.557 199.79 223.899 199.736 224.223 199.628C224.547 199.508 224.847 199.316 225.123 199.052C225.399 198.788 225.639 198.434 225.843 197.99L226.203 198.134C226.071 198.53 225.855 198.914 225.555 199.286C225.255 199.658 224.877 199.964 224.421 200.204C223.965 200.432 223.437 200.546 222.837 200.546C221.973 200.546 221.229 200.348 220.605 199.952C219.993 199.556 219.519 199.01 219.183 198.314C218.859 197.606 218.697 196.796 218.697 195.884C218.697 194.828 218.865 193.922 219.201 193.166C219.537 192.398 220.011 191.81 220.623 191.402C221.235 190.982 221.949 190.772 222.765 190.772ZM233.095 190.772C233.419 190.772 233.701 190.838 233.941 190.97C234.193 191.102 234.385 191.276 234.517 191.492C234.661 191.696 234.733 191.93 234.733 192.194C234.733 192.494 234.637 192.758 234.445 192.986C234.265 193.214 234.019 193.328 233.707 193.328C233.455 193.328 233.233 193.25 233.041 193.094C232.849 192.926 232.753 192.692 232.753 192.392C232.753 192.164 232.813 191.972 232.933 191.816C233.065 191.648 233.209 191.516 233.365 191.42C233.281 191.3 233.155 191.24 232.987 191.24C232.615 191.24 232.273 191.354 231.961 191.582C231.649 191.798 231.385 192.08 231.169 192.428C230.953 192.776 230.785 193.148 230.665 193.544C230.545 193.928 230.485 194.288 230.485 194.624V198.44C230.485 199.028 230.653 199.424 230.989 199.628C231.337 199.82 231.805 199.916 232.393 199.916V200.294C232.117 200.282 231.727 200.27 231.223 200.258C230.719 200.234 230.185 200.222 229.621 200.222C229.213 200.222 228.805 200.234 228.397 200.258C228.001 200.27 227.701 200.282 227.497 200.294V199.916C227.989 199.916 228.337 199.826 228.541 199.646C228.757 199.466 228.865 199.124 228.865 198.62V192.986C228.865 192.446 228.769 192.05 228.577 191.798C228.385 191.534 228.025 191.402 227.497 191.402V191.024C227.881 191.06 228.253 191.078 228.613 191.078C228.961 191.078 229.291 191.06 229.603 191.024C229.927 190.976 230.221 190.91 230.485 190.826V193.076C230.617 192.728 230.803 192.38 231.043 192.032C231.295 191.672 231.595 191.372 231.943 191.132C232.291 190.892 232.675 190.772 233.095 190.772ZM245.764 187.298C246.556 187.298 247.204 187.418 247.708 187.658C248.224 187.886 248.68 188.156 249.076 188.468C249.316 188.648 249.496 188.672 249.616 188.54C249.748 188.396 249.838 188.066 249.886 187.55H250.3C250.276 187.994 250.258 188.534 250.246 189.17C250.234 189.806 250.228 190.646 250.228 191.69H249.814C249.73 191.174 249.652 190.766 249.58 190.466C249.508 190.154 249.418 189.89 249.31 189.674C249.214 189.458 249.082 189.242 248.914 189.026C248.542 188.534 248.074 188.18 247.51 187.964C246.946 187.736 246.352 187.622 245.728 187.622C245.14 187.622 244.606 187.772 244.126 188.072C243.658 188.36 243.25 188.78 242.902 189.332C242.566 189.884 242.302 190.55 242.11 191.33C241.93 192.11 241.84 192.986 241.84 193.958C241.84 194.966 241.942 195.86 242.146 196.64C242.35 197.408 242.632 198.056 242.992 198.584C243.364 199.112 243.796 199.514 244.288 199.79C244.792 200.054 245.332 200.186 245.908 200.186C246.448 200.186 247.012 200.078 247.6 199.862C248.188 199.646 248.65 199.298 248.986 198.818C249.25 198.47 249.43 198.092 249.526 197.684C249.634 197.276 249.73 196.706 249.814 195.974H250.228C250.228 197.066 250.234 197.948 250.246 198.62C250.258 199.28 250.276 199.838 250.3 200.294H249.886C249.838 199.778 249.754 199.454 249.634 199.322C249.526 199.19 249.34 199.208 249.076 199.376C248.632 199.688 248.158 199.964 247.654 200.204C247.162 200.432 246.526 200.546 245.746 200.546C244.606 200.546 243.604 200.288 242.74 199.772C241.888 199.256 241.222 198.512 240.742 197.54C240.274 196.568 240.04 195.398 240.04 194.03C240.04 192.686 240.286 191.51 240.778 190.502C241.27 189.494 241.942 188.708 242.794 188.144C243.658 187.58 244.648 187.298 245.764 187.298ZM254.557 200.42C254.065 200.42 253.639 200.33 253.279 200.15C252.919 199.958 252.643 199.694 252.451 199.358C252.271 199.022 252.181 198.632 252.181 198.188C252.181 197.66 252.301 197.228 252.541 196.892C252.793 196.556 253.111 196.286 253.495 196.082C253.879 195.878 254.281 195.71 254.701 195.578C255.133 195.434 255.541 195.302 255.925 195.182C256.309 195.05 256.621 194.9 256.861 194.732C257.113 194.564 257.239 194.342 257.239 194.066V192.95C257.239 192.446 257.161 192.062 257.005 191.798C256.861 191.534 256.663 191.36 256.411 191.276C256.159 191.18 255.877 191.132 255.565 191.132C255.265 191.132 254.941 191.174 254.593 191.258C254.257 191.342 253.987 191.516 253.783 191.78C254.011 191.828 254.209 191.948 254.377 192.14C254.545 192.332 254.629 192.578 254.629 192.878C254.629 193.178 254.533 193.418 254.341 193.598C254.149 193.766 253.903 193.85 253.603 193.85C253.255 193.85 252.997 193.742 252.829 193.526C252.673 193.298 252.595 193.046 252.595 192.77C252.595 192.458 252.673 192.206 252.829 192.014C252.985 191.822 253.183 191.642 253.423 191.474C253.699 191.282 254.053 191.12 254.485 190.988C254.929 190.844 255.427 190.772 255.979 190.772C256.471 190.772 256.891 190.832 257.239 190.952C257.587 191.06 257.875 191.222 258.103 191.438C258.415 191.726 258.619 192.08 258.715 192.5C258.811 192.908 258.859 193.4 258.859 193.976V198.98C258.859 199.28 258.901 199.496 258.985 199.628C259.081 199.76 259.225 199.826 259.417 199.826C259.549 199.826 259.675 199.796 259.795 199.736C259.915 199.676 260.059 199.58 260.227 199.448L260.425 199.754C260.173 199.946 259.933 200.108 259.705 200.24C259.477 200.36 259.171 200.42 258.787 200.42C258.439 200.42 258.151 200.36 257.923 200.24C257.695 200.12 257.521 199.946 257.401 199.718C257.293 199.478 257.239 199.178 257.239 198.818C256.915 199.358 256.525 199.76 256.069 200.024C255.625 200.288 255.121 200.42 254.557 200.42ZM255.205 199.7C255.601 199.7 255.967 199.586 256.303 199.358C256.651 199.13 256.963 198.788 257.239 198.332V194.804C257.095 195.008 256.885 195.182 256.609 195.326C256.333 195.458 256.033 195.596 255.709 195.74C255.385 195.872 255.073 196.034 254.773 196.226C254.485 196.406 254.245 196.646 254.053 196.946C253.861 197.246 253.765 197.636 253.765 198.116C253.765 198.596 253.891 198.98 254.143 199.268C254.407 199.556 254.761 199.7 255.205 199.7ZM263.827 190.826V201.878C263.827 202.394 263.977 202.736 264.277 202.904C264.589 203.084 265.015 203.174 265.555 203.174V203.552C265.291 203.54 264.925 203.522 264.457 203.498C263.989 203.486 263.491 203.48 262.963 203.48C262.591 203.48 262.219 203.486 261.847 203.498C261.487 203.522 261.211 203.54 261.019 203.552V203.174C261.451 203.174 261.757 203.096 261.937 202.94C262.117 202.784 262.207 202.49 262.207 202.058V192.986C262.207 192.446 262.111 192.05 261.919 191.798C261.727 191.534 261.367 191.402 260.839 191.402V191.024C261.223 191.06 261.595 191.078 261.955 191.078C262.303 191.078 262.633 191.06 262.945 191.024C263.269 190.976 263.563 190.91 263.827 190.826ZM266.707 190.772C267.343 190.772 267.913 190.946 268.417 191.294C268.921 191.63 269.317 192.128 269.605 192.788C269.905 193.448 270.055 194.264 270.055 195.236C270.055 195.884 269.977 196.526 269.821 197.162C269.665 197.786 269.419 198.356 269.083 198.872C268.759 199.376 268.333 199.784 267.805 200.096C267.289 200.396 266.665 200.546 265.933 200.546C265.369 200.546 264.877 200.414 264.457 200.15C264.049 199.886 263.773 199.568 263.629 199.196L263.809 198.944C263.977 199.28 264.217 199.562 264.529 199.79C264.853 200.018 265.255 200.132 265.735 200.132C266.407 200.132 266.929 199.922 267.301 199.502C267.673 199.082 267.931 198.524 268.075 197.828C268.231 197.12 268.309 196.34 268.309 195.488C268.309 194.528 268.231 193.742 268.075 193.13C267.919 192.518 267.685 192.062 267.373 191.762C267.061 191.462 266.677 191.312 266.221 191.312C265.633 191.312 265.099 191.558 264.619 192.05C264.139 192.53 263.833 193.262 263.701 194.246L263.485 193.994C263.617 192.974 263.977 192.182 264.565 191.618C265.165 191.054 265.879 190.772 266.707 190.772ZM274.322 188.036V191.042H276.986V191.402H274.322V198.368C274.322 198.932 274.424 199.328 274.628 199.556C274.832 199.784 275.114 199.898 275.474 199.898C275.834 199.898 276.146 199.754 276.41 199.466C276.674 199.166 276.902 198.668 277.094 197.972L277.454 198.062C277.334 198.758 277.094 199.346 276.734 199.826C276.386 200.306 275.846 200.546 275.114 200.546C274.706 200.546 274.37 200.492 274.106 200.384C273.842 200.288 273.608 200.144 273.404 199.952C273.14 199.676 272.954 199.346 272.846 198.962C272.75 198.578 272.702 198.068 272.702 197.432V191.402H270.974V191.042H272.702V188.288C273.002 188.276 273.29 188.252 273.566 188.216C273.842 188.18 274.094 188.12 274.322 188.036ZM285.96 190.826V198.35C285.96 198.89 286.056 199.292 286.248 199.556C286.452 199.808 286.812 199.934 287.328 199.934V200.312C286.956 200.276 286.584 200.258 286.212 200.258C285.864 200.258 285.528 200.276 285.204 200.312C284.892 200.348 284.604 200.414 284.34 200.51V198.386C284.04 199.166 283.614 199.724 283.062 200.06C282.522 200.384 281.964 200.546 281.388 200.546C280.968 200.546 280.602 200.486 280.29 200.366C279.978 200.246 279.72 200.078 279.516 199.862C279.288 199.622 279.132 199.31 279.048 198.926C278.964 198.542 278.922 198.068 278.922 197.504V192.986C278.922 192.446 278.826 192.05 278.634 191.798C278.442 191.534 278.082 191.402 277.554 191.402V191.024C277.938 191.06 278.31 191.078 278.67 191.078C279.018 191.078 279.348 191.06 279.66 191.024C279.984 190.976 280.278 190.91 280.542 190.826V197.9C280.542 198.272 280.566 198.614 280.614 198.926C280.662 199.238 280.782 199.49 280.974 199.682C281.166 199.874 281.478 199.97 281.91 199.97C282.378 199.97 282.792 199.826 283.152 199.538C283.524 199.25 283.812 198.86 284.016 198.368C284.232 197.876 284.34 197.324 284.34 196.712V192.986C284.34 192.446 284.244 192.05 284.052 191.798C283.86 191.534 283.5 191.402 282.972 191.402V191.024C283.356 191.06 283.728 191.078 284.088 191.078C284.436 191.078 284.766 191.06 285.078 191.024C285.402 190.976 285.696 190.91 285.96 190.826ZM293.845 190.772C294.169 190.772 294.451 190.838 294.691 190.97C294.943 191.102 295.135 191.276 295.267 191.492C295.411 191.696 295.483 191.93 295.483 192.194C295.483 192.494 295.387 192.758 295.195 192.986C295.015 193.214 294.769 193.328 294.457 193.328C294.205 193.328 293.983 193.25 293.791 193.094C293.599 192.926 293.503 192.692 293.503 192.392C293.503 192.164 293.563 191.972 293.683 191.816C293.815 191.648 293.959 191.516 294.115 191.42C294.031 191.3 293.905 191.24 293.737 191.24C293.365 191.24 293.023 191.354 292.711 191.582C292.399 191.798 292.135 192.08 291.919 192.428C291.703 192.776 291.535 193.148 291.415 193.544C291.295 193.928 291.235 194.288 291.235 194.624V198.44C291.235 199.028 291.403 199.424 291.739 199.628C292.087 199.82 292.555 199.916 293.143 199.916V200.294C292.867 200.282 292.477 200.27 291.973 200.258C291.469 200.234 290.935 200.222 290.371 200.222C289.963 200.222 289.555 200.234 289.147 200.258C288.751 200.27 288.451 200.282 288.247 200.294V199.916C288.739 199.916 289.087 199.826 289.291 199.646C289.507 199.466 289.615 199.124 289.615 198.62V192.986C289.615 192.446 289.519 192.05 289.327 191.798C289.135 191.534 288.775 191.402 288.247 191.402V191.024C288.631 191.06 289.003 191.078 289.363 191.078C289.711 191.078 290.041 191.06 290.353 191.024C290.677 190.976 290.971 190.91 291.235 190.826V193.076C291.367 192.728 291.553 192.38 291.793 192.032C292.045 191.672 292.345 191.372 292.693 191.132C293.041 190.892 293.425 190.772 293.845 190.772ZM300.285 190.772C301.341 190.772 302.163 191.096 302.751 191.744C303.351 192.38 303.651 193.376 303.651 194.732H297.297L297.279 194.39H301.923C301.947 193.802 301.899 193.262 301.779 192.77C301.659 192.266 301.467 191.864 301.203 191.564C300.951 191.264 300.621 191.114 300.213 191.114C299.661 191.114 299.169 191.39 298.737 191.942C298.317 192.494 298.065 193.37 297.981 194.57L298.035 194.642C298.011 194.822 297.993 195.02 297.981 195.236C297.969 195.452 297.963 195.668 297.963 195.884C297.963 196.7 298.095 197.402 298.359 197.99C298.623 198.578 298.965 199.028 299.385 199.34C299.817 199.64 300.261 199.79 300.717 199.79C301.077 199.79 301.419 199.736 301.743 199.628C302.067 199.508 302.367 199.316 302.643 199.052C302.919 198.788 303.159 198.434 303.363 197.99L303.723 198.134C303.591 198.53 303.375 198.914 303.075 199.286C302.775 199.658 302.397 199.964 301.941 200.204C301.485 200.432 300.957 200.546 300.357 200.546C299.493 200.546 298.749 200.348 298.125 199.952C297.513 199.556 297.039 199.01 296.703 198.314C296.379 197.606 296.217 196.796 296.217 195.884C296.217 194.828 296.385 193.922 296.721 193.166C297.057 192.398 297.531 191.81 298.143 191.402C298.755 190.982 299.469 190.772 300.285 190.772ZM313.206 186.182V198.332C313.206 198.872 313.302 199.274 313.494 199.538C313.698 199.79 314.058 199.916 314.574 199.916V200.294C314.202 200.258 313.83 200.24 313.458 200.24C313.11 200.24 312.774 200.258 312.45 200.294C312.138 200.33 311.85 200.396 311.586 200.492V188.342C311.586 187.802 311.49 187.406 311.298 187.154C311.106 186.89 310.746 186.758 310.218 186.758V186.38C310.602 186.416 310.974 186.434 311.334 186.434C311.682 186.434 312.012 186.416 312.324 186.38C312.648 186.332 312.942 186.266 313.206 186.182ZM309.426 190.772C309.954 190.772 310.446 190.898 310.902 191.15C311.37 191.402 311.682 191.834 311.838 192.446L311.604 192.626C311.436 192.122 311.172 191.756 310.812 191.528C310.464 191.3 310.05 191.186 309.57 191.186C308.862 191.186 308.268 191.552 307.788 192.284C307.32 193.016 307.092 194.144 307.104 195.668C307.104 196.64 307.194 197.45 307.374 198.098C307.566 198.734 307.842 199.214 308.202 199.538C308.574 199.85 309.024 200.006 309.552 200.006C310.056 200.006 310.512 199.79 310.92 199.358C311.328 198.926 311.574 198.29 311.658 197.45L311.874 197.702C311.778 198.614 311.484 199.316 310.992 199.808C310.512 200.3 309.858 200.546 309.03 200.546C308.286 200.546 307.632 200.366 307.068 200.006C306.516 199.646 306.09 199.106 305.79 198.386C305.502 197.666 305.358 196.76 305.358 195.668C305.358 194.576 305.544 193.67 305.916 192.95C306.3 192.218 306.798 191.672 307.41 191.312C308.034 190.952 308.706 190.772 309.426 190.772Z" fill="#6D6A5B"/>
<path d="M185.424 101.733C182.329 104.383 178.875 109.734 178.875 109.734C178.875 109.734 187.518 110.333 192.44 108.4C194.785 107.479 196.21 106.947 198.053 105.289C198.988 104.447 200.168 102.859 200.859 100.844C201.596 98.6992 201.327 95.0664 201.327 95.0664C201.327 95.0664 194.404 96.1451 190.569 98.1777C188.399 99.3276 187.269 100.153 185.424 101.733Z" fill="#625B49" stroke="#625B49"/>
<path d="M184.555 121.81C181.665 119.896 177 117.199 177 117.199C177 117.199 178.799 121.692 179.938 124.577C181.428 128.351 181.222 131.191 183.716 134.26C185.678 136.674 187.319 137.506 189.988 138.859L190.012 138.871C192.793 140.28 197.568 141.176 197.568 141.176C197.568 141.176 197.697 138.921 197.568 137.488C197.333 134.878 197.136 133.268 195.889 131.032C194.43 128.417 192.678 127.782 190.432 125.96C188.237 124.18 186.892 123.358 184.555 121.81Z" fill="#6D6A5B" stroke="#6D6A5B"/>
<path d="M171.841 119.964C172.608 119.042 173.391 117.199 173.391 117.199C173.391 117.199 174.691 118.634 175.327 119.503C176.216 120.717 177.284 122.8 177.651 124.111C178.297 126.415 178.777 128.717 179.588 132.406C180.173 135.069 180.75 139.318 180.75 139.318C180.75 139.318 177.439 139.522 175.327 138.396C174.025 137.702 172.836 136.849 171.841 135.631C170.756 134.302 170.35 133.259 169.905 131.484C169.624 130.367 169.572 129.529 169.517 128.258C169.432 126.273 169.658 125.029 170.292 123.19C170.786 121.757 171.232 120.696 171.841 119.964Z" fill="#6D6A5B" stroke="#6D6A5B"/>
<path d="M163.669 118.554C165.335 118.103 169.5 117.199 169.5 117.199C169.5 117.199 167.679 123.239 165.751 126.685C164.604 128.736 163.961 129.932 162.419 131.653C160.72 133.552 157.421 135.719 157.421 135.719C157.421 135.719 153.797 138.224 151.173 138.88C149.581 139.279 147.008 139.332 147.008 139.332C147.008 139.332 146.857 134.93 147.841 132.105C148.433 130.406 149.091 128.943 149.924 127.588C150.775 126.203 152.259 124.221 153.673 123.071C155.339 121.716 155.385 121.716 158.254 120.361C159.751 119.654 162.003 119.006 163.669 118.554Z" fill="#6D6A5B" stroke="#6D6A5B"/>
<path d="M165 110.108C166.227 110.966 169.5 114.874 169.5 114.874C169.5 114.874 167.344 116.334 165.818 116.78C163.649 117.415 160.091 117.257 158.045 116.78C156.479 116.415 153.955 114.874 152.727 113.92C151.314 112.823 149.864 111.061 148.636 109.154C147.864 107.954 147 104.388 147 104.388C147 104.388 149.257 104.163 150.682 104.388C152.335 104.649 154.813 105.254 156.409 105.818C158.488 106.553 158.892 106.782 160.909 107.724L160.948 107.743C162.899 108.655 162.968 108.687 165 110.108Z" fill="#6D6A5B" stroke="#6D6A5B"/>
<path d="M148.805 96.395C147.867 94.7526 147 91.9034 147 91.9034L153.318 91.4543C153.318 91.4543 156.914 91.1041 159.067 91.9035C160.603 92.4739 161.452 93.1229 162.74 94.1076L162.794 94.1492C164.573 95.5093 165.4 96.4926 166.855 98.1916C167.999 99.5265 168.587 100.324 169.563 101.785C171.221 104.268 172.751 105.57 173.173 108.522C173.346 109.738 173.173 111.666 173.173 111.666C173.173 111.666 171.249 109.62 169.112 108.073C167.885 107.186 166.396 106.522 165.05 105.827C163.566 105.061 161.891 104.55 160.538 104.031C158.551 103.268 157.968 103.102 156.025 102.234C154.442 101.526 152.872 101.062 151.513 99.9883C150.132 98.898 149.676 97.9199 148.805 96.395Z" fill="#646453" stroke="#65644B"/>
<path d="M184.865 111.152C180.84 111.756 175.125 112.48 175.125 112.48C175.125 112.48 177.747 115.137 180.88 116.905C183.846 118.578 187.256 120.012 189.292 120.445C191.328 120.879 192.391 120.888 193.719 120.888C195.652 120.888 199.917 118.955 200.802 118.232C202.329 116.986 203.901 115.577 204.344 114.249C205.132 111.884 207 110.267 207 110.267C207 110.267 203.465 109.863 199.474 109.824C194.966 109.779 189.323 110.483 184.865 111.152Z" fill="#6D6A5B" stroke="#6D6A5B"/>
<path d="M166.657 91.155C166.657 87.816 165.75 84 165.75 84C165.75 84 168.926 84.477 170.741 85.431C170.741 85.431 173.684 86.9122 175.731 88.7699C177.827 90.671 178.861 91.7624 179.815 94.4941C180.791 97.2921 181.102 99.2773 180.268 102.126C179.802 103.718 179.279 104.52 178.453 105.942C177.012 108.426 173.917 111.666 173.917 111.666C173.917 111.666 173.519 107.174 172.555 104.511C171.766 102.329 170.835 101.347 169.833 99.264C168.689 96.8838 166.657 93.8222 166.657 91.155Z" fill="#646453" stroke="#646453"/>
<path d="M21.5173 142.24C22.8507 142.24 23.864 142.4 24.5573 142.72C25.2507 143.013 25.864 143.347 26.3973 143.72C26.7173 143.907 26.9707 144.053 27.1573 144.16C27.3707 144.24 27.5707 144.28 27.7573 144.28C28.024 144.28 28.2107 144.133 28.3173 143.84C28.4507 143.547 28.5573 143.107 28.6373 142.52H29.5573C29.5307 142.973 29.4907 143.52 29.4373 144.16C29.4107 144.773 29.384 145.6 29.3573 146.64C29.3573 147.653 29.3573 149 29.3573 150.68H28.4373C28.3573 149.4 28.0773 148.173 27.5973 147C27.1173 145.827 26.4107 144.867 25.4773 144.12C24.5707 143.373 23.3707 143 21.8773 143C20.464 143 19.2907 143.427 18.3573 144.28C17.4507 145.133 16.9973 146.253 16.9973 147.64C16.9973 148.84 17.304 149.853 17.9173 150.68C18.5307 151.48 19.344 152.213 20.3573 152.88C21.3973 153.52 22.5173 154.213 23.7173 154.96C25.104 155.813 26.3307 156.667 27.3973 157.52C28.4907 158.347 29.344 159.267 29.9573 160.28C30.5973 161.293 30.9173 162.52 30.9173 163.96C30.9173 165.667 30.5307 167.08 29.7573 168.2C28.984 169.32 27.9573 170.16 26.6773 170.72C25.3973 171.28 23.984 171.56 22.4373 171.56C21.024 171.56 19.904 171.4 19.0773 171.08C18.2507 170.76 17.544 170.427 16.9573 170.08C16.3707 169.707 15.9173 169.52 15.5973 169.52C15.3307 169.52 15.1307 169.667 14.9973 169.96C14.8907 170.253 14.7973 170.693 14.7173 171.28H13.7973C13.8507 170.72 13.8773 170.067 13.8773 169.32C13.904 168.547 13.9173 167.547 13.9173 166.32C13.944 165.093 13.9573 163.547 13.9573 161.68H14.8773C14.984 163.28 15.2773 164.773 15.7573 166.16C16.264 167.547 17.024 168.667 18.0373 169.52C19.0773 170.347 20.4507 170.76 22.1573 170.76C23.0373 170.76 23.864 170.587 24.6373 170.24C25.4373 169.867 26.0907 169.293 26.5973 168.52C27.104 167.72 27.3573 166.693 27.3573 165.44C27.3573 164.347 27.0907 163.4 26.5573 162.6C26.0507 161.773 25.3307 161.013 24.3973 160.32C23.464 159.6 22.3707 158.867 21.1173 158.12C19.864 157.347 18.6907 156.56 17.5973 155.76C16.504 154.96 15.624 154.04 14.9573 153C14.3173 151.933 13.9973 150.653 13.9973 149.16C13.9973 147.587 14.344 146.293 15.0373 145.28C15.7573 144.24 16.6907 143.48 17.8373 143C18.984 142.493 20.2107 142.24 21.5173 142.24ZM42.3189 139.68V154.64C43.0122 152.827 43.9722 151.573 45.1989 150.88C46.4522 150.187 47.7589 149.84 49.1189 149.84C50.1322 149.84 50.9722 149.973 51.6389 150.24C52.3322 150.507 52.9056 150.88 53.3589 151.36C53.8656 151.893 54.2256 152.56 54.4389 153.36C54.6522 154.16 54.7589 155.24 54.7589 156.6V167.28C54.7589 168.4 54.9856 169.16 55.4389 169.56C55.9189 169.96 56.7056 170.16 57.7989 170.16V171C57.3456 170.973 56.6522 170.947 55.7189 170.92C54.7856 170.867 53.8789 170.84 52.9989 170.84C52.1189 170.84 51.2522 170.867 50.3989 170.92C49.5722 170.947 48.9456 170.973 48.5189 171V170.16C49.4789 170.16 50.1589 169.96 50.5589 169.56C50.9589 169.16 51.1589 168.4 51.1589 167.28V155.72C51.1589 154.893 51.0922 154.133 50.9589 153.44C50.8256 152.747 50.5189 152.187 50.0389 151.76C49.5856 151.333 48.8789 151.12 47.9189 151.12C46.8256 151.12 45.8522 151.427 44.9989 152.04C44.1722 152.653 43.5189 153.507 43.0389 154.6C42.5589 155.693 42.3189 156.947 42.3189 158.36V167.28C42.3189 168.4 42.5189 169.16 42.9189 169.56C43.3189 169.96 43.9989 170.16 44.9589 170.16V171C44.5322 170.973 43.8922 170.947 43.0389 170.92C42.2122 170.867 41.3589 170.84 40.4789 170.84C39.5989 170.84 38.6922 170.867 37.7589 170.92C36.8256 170.947 36.1322 170.973 35.6789 171V170.16C36.7722 170.16 37.5456 169.96 37.9989 169.56C38.4789 169.16 38.7189 168.4 38.7189 167.28V144.48C38.7189 143.28 38.5056 142.4 38.0789 141.84C37.6522 141.253 36.8522 140.96 35.6789 140.96V140.12C36.5322 140.2 37.3589 140.24 38.1589 140.24C38.9322 140.24 39.6656 140.2 40.3589 140.12C41.0789 140.013 41.7322 139.867 42.3189 139.68ZM67.2345 171.28C66.1412 171.28 65.1945 171.08 64.3945 170.68C63.5945 170.253 62.9812 169.667 62.5545 168.92C62.1545 168.173 61.9545 167.307 61.9545 166.32C61.9545 165.147 62.2212 164.187 62.7545 163.44C63.3145 162.693 64.0212 162.093 64.8745 161.64C65.7279 161.187 66.6212 160.813 67.5545 160.52C68.5145 160.2 69.4212 159.907 70.2745 159.64C71.1279 159.347 71.8212 159.013 72.3545 158.64C72.9145 158.267 73.1945 157.773 73.1945 157.16V154.68C73.1945 153.56 73.0212 152.707 72.6745 152.12C72.3545 151.533 71.9145 151.147 71.3545 150.96C70.7945 150.747 70.1679 150.64 69.4745 150.64C68.8079 150.64 68.0879 150.733 67.3145 150.92C66.5679 151.107 65.9679 151.493 65.5145 152.08C66.0212 152.187 66.4612 152.453 66.8345 152.88C67.2079 153.307 67.3945 153.853 67.3945 154.52C67.3945 155.187 67.1812 155.72 66.7545 156.12C66.3279 156.493 65.7812 156.68 65.1145 156.68C64.3412 156.68 63.7679 156.44 63.3945 155.96C63.0479 155.453 62.8745 154.893 62.8745 154.28C62.8745 153.587 63.0479 153.027 63.3945 152.6C63.7412 152.173 64.1812 151.773 64.7145 151.4C65.3279 150.973 66.1145 150.613 67.0745 150.32C68.0612 150 69.1679 149.84 70.3945 149.84C71.4879 149.84 72.4212 149.973 73.1945 150.24C73.9679 150.48 74.6079 150.84 75.1145 151.32C75.8079 151.96 76.2612 152.747 76.4745 153.68C76.6879 154.587 76.7945 155.68 76.7945 156.96V168.08C76.7945 168.747 76.8879 169.227 77.0745 169.52C77.2879 169.813 77.6079 169.96 78.0345 169.96C78.3279 169.96 78.6079 169.893 78.8745 169.76C79.1412 169.627 79.4612 169.413 79.8345 169.12L80.2745 169.8C79.7145 170.227 79.1812 170.587 78.6745 170.88C78.1679 171.147 77.4879 171.28 76.6345 171.28C75.8612 171.28 75.2212 171.147 74.7145 170.88C74.2079 170.613 73.8212 170.227 73.5545 169.72C73.3145 169.187 73.1945 168.52 73.1945 167.72C72.4745 168.92 71.6079 169.813 70.5945 170.4C69.6079 170.987 68.4879 171.28 67.2345 171.28ZM68.6745 169.68C69.5545 169.68 70.3679 169.427 71.1145 168.92C71.8879 168.413 72.5812 167.653 73.1945 166.64V158.8C72.8745 159.253 72.4079 159.64 71.7945 159.96C71.1812 160.253 70.5145 160.56 69.7945 160.88C69.0745 161.173 68.3812 161.533 67.7145 161.96C67.0745 162.36 66.5412 162.893 66.1145 163.56C65.6879 164.227 65.4745 165.093 65.4745 166.16C65.4745 167.227 65.7545 168.08 66.3145 168.72C66.9012 169.36 67.6879 169.68 68.6745 169.68ZM96.9164 149.84C97.9297 149.84 98.7697 149.973 99.4364 150.24C100.13 150.507 100.703 150.88 101.156 151.36C101.663 151.893 102.023 152.56 102.236 153.36C102.45 154.16 102.556 155.24 102.556 156.6V167.28C102.556 168.4 102.783 169.16 103.236 169.56C103.716 169.96 104.503 170.16 105.596 170.16V171C105.143 170.973 104.45 170.947 103.516 170.92C102.583 170.867 101.676 170.84 100.796 170.84C99.9164 170.84 99.0497 170.867 98.1964 170.92C97.3697 170.947 96.7431 170.973 96.3164 171V170.16C97.2764 170.16 97.9564 169.96 98.3564 169.56C98.7564 169.16 98.9564 168.4 98.9564 167.28V155.72C98.9564 154.893 98.8897 154.133 98.7564 153.44C98.6231 152.747 98.3164 152.187 97.8364 151.76C97.3831 151.333 96.6764 151.12 95.7164 151.12C94.5964 151.12 93.6097 151.44 92.7564 152.08C91.9297 152.72 91.2764 153.6 90.7964 154.72C90.3431 155.813 90.1164 157.04 90.1164 158.4V167.28C90.1164 168.4 90.3164 169.16 90.7164 169.56C91.1164 169.96 91.7964 170.16 92.7564 170.16V171C92.3297 170.973 91.6897 170.947 90.8364 170.92C90.0097 170.867 89.1564 170.84 88.2764 170.84C87.3964 170.84 86.4897 170.867 85.5564 170.92C84.6231 170.947 83.9297 170.973 83.4764 171V170.16C84.5697 170.16 85.3431 169.96 85.7964 169.56C86.2764 169.16 86.5164 168.4 86.5164 167.28V154.76C86.5164 153.56 86.3031 152.68 85.8764 152.12C85.4497 151.533 84.6497 151.24 83.4764 151.24V150.4C84.3297 150.48 85.1564 150.52 85.9564 150.52C86.7297 150.52 87.4631 150.48 88.1564 150.4C88.8764 150.293 89.5297 150.147 90.1164 149.96V154.68C90.8097 152.867 91.7697 151.613 92.9964 150.92C94.2497 150.2 95.5564 149.84 96.9164 149.84ZM119.064 149.84C121.41 149.84 123.237 150.56 124.544 152C125.877 153.413 126.544 155.627 126.544 158.64H112.424L112.384 157.88H122.704C122.757 156.573 122.65 155.373 122.384 154.28C122.117 153.16 121.69 152.267 121.104 151.6C120.544 150.933 119.81 150.6 118.904 150.6C117.677 150.6 116.584 151.213 115.624 152.44C114.69 153.667 114.13 155.613 113.944 158.28L114.064 158.44C114.01 158.84 113.97 159.28 113.944 159.76C113.917 160.24 113.904 160.72 113.904 161.2C113.904 163.013 114.197 164.573 114.784 165.88C115.37 167.187 116.13 168.187 117.064 168.88C118.024 169.547 119.01 169.88 120.024 169.88C120.824 169.88 121.584 169.76 122.304 169.52C123.024 169.253 123.69 168.827 124.304 168.24C124.917 167.653 125.45 166.867 125.904 165.88L126.704 166.2C126.41 167.08 125.93 167.933 125.264 168.76C124.597 169.587 123.757 170.267 122.744 170.8C121.73 171.307 120.557 171.56 119.224 171.56C117.304 171.56 115.65 171.12 114.264 170.24C112.904 169.36 111.85 168.147 111.104 166.6C110.384 165.027 110.024 163.227 110.024 161.2C110.024 158.853 110.397 156.84 111.144 155.16C111.89 153.453 112.944 152.147 114.304 151.24C115.664 150.307 117.25 149.84 119.064 149.84ZM137.938 139.64V167.28C137.938 168.4 138.165 169.16 138.618 169.56C139.098 169.96 139.885 170.16 140.978 170.16V171C140.525 170.973 139.831 170.947 138.898 170.92C137.991 170.867 137.071 170.84 136.138 170.84C135.231 170.84 134.311 170.867 133.378 170.92C132.445 170.947 131.751 170.973 131.298 171V170.16C132.391 170.16 133.165 169.96 133.618 169.56C134.098 169.16 134.338 168.4 134.338 167.28V144.44C134.338 143.24 134.125 142.36 133.698 141.8C133.271 141.213 132.471 140.92 131.298 140.92V140.08C132.151 140.16 132.978 140.2 133.778 140.2C134.551 140.2 135.285 140.16 135.978 140.08C136.698 139.973 137.351 139.827 137.938 139.64ZM180.424 142.68V143.48C179.598 143.587 178.798 143.853 178.024 144.28C177.251 144.707 176.478 145.413 175.704 146.4L167.984 156.28L168.864 154.32L178.464 167.76C178.918 168.427 179.411 168.947 179.944 169.32C180.478 169.693 181.158 169.987 181.984 170.2V171C181.344 170.947 180.544 170.92 179.584 170.92C178.651 170.893 177.851 170.88 177.184 170.88C176.731 170.88 176.171 170.893 175.504 170.92C174.864 170.92 174.051 170.947 173.064 171V170.2C173.971 170.147 174.544 169.987 174.784 169.72C175.024 169.453 174.931 169.013 174.504 168.4L168.664 159.6C168.131 158.773 167.651 158.16 167.224 157.76C166.824 157.333 166.398 157.053 165.944 156.92C165.518 156.787 164.971 156.707 164.304 156.68V155.88C165.424 155.853 166.358 155.64 167.104 155.24C167.878 154.813 168.518 154.28 169.024 153.64L172.864 148.76C173.744 147.64 174.344 146.693 174.664 145.92C174.984 145.147 174.971 144.56 174.624 144.16C174.278 143.733 173.544 143.507 172.424 143.48V142.68C172.931 142.707 173.451 142.733 173.984 142.76C174.518 142.76 175.038 142.773 175.544 142.8C176.078 142.8 176.571 142.8 177.024 142.8C177.718 142.8 178.358 142.787 178.944 142.76C179.531 142.733 180.024 142.707 180.424 142.68ZM167.704 142.68V143.48C166.798 143.507 166.104 143.613 165.624 143.8C165.171 143.96 164.864 144.28 164.704 144.76C164.544 145.213 164.464 145.933 164.464 146.92V166.76C164.464 167.72 164.544 168.44 164.704 168.92C164.864 169.4 165.171 169.72 165.624 169.88C166.104 170.04 166.798 170.147 167.704 170.2V171C167.091 170.947 166.318 170.92 165.384 170.92C164.478 170.893 163.558 170.88 162.624 170.88C161.584 170.88 160.611 170.893 159.704 170.92C158.798 170.92 158.064 170.947 157.504 171V170.2C158.411 170.147 159.091 170.04 159.544 169.88C160.024 169.72 160.344 169.4 160.504 168.92C160.664 168.44 160.744 167.72 160.744 166.76V146.92C160.744 145.933 160.664 145.213 160.504 144.76C160.344 144.28 160.024 143.96 159.544 143.8C159.091 143.613 158.411 143.507 157.504 143.48V142.68C158.064 142.707 158.798 142.733 159.704 142.76C160.611 142.787 161.584 142.8 162.624 142.8C163.558 142.8 164.478 142.787 165.384 142.76C166.318 142.733 167.091 142.707 167.704 142.68ZM189.755 140.4C190.448 140.4 191.048 140.653 191.555 141.16C192.062 141.667 192.315 142.267 192.315 142.96C192.315 143.653 192.062 144.253 191.555 144.76C191.048 145.267 190.448 145.52 189.755 145.52C189.062 145.52 188.462 145.267 187.955 144.76C187.448 144.253 187.195 143.653 187.195 142.96C187.195 142.267 187.448 141.667 187.955 141.16C188.462 140.653 189.062 140.4 189.755 140.4ZM191.835 149.96V167.28C191.835 168.4 192.062 169.16 192.515 169.56C192.995 169.96 193.782 170.16 194.875 170.16V171C194.422 170.973 193.728 170.947 192.795 170.92C191.888 170.867 190.968 170.84 190.035 170.84C189.128 170.84 188.208 170.867 187.275 170.92C186.342 170.947 185.648 170.973 185.195 171V170.16C186.288 170.16 187.062 169.96 187.515 169.56C187.995 169.16 188.235 168.4 188.235 167.28V154.76C188.235 153.56 188.022 152.68 187.595 152.12C187.168 151.533 186.368 151.24 185.195 151.24V150.4C186.048 150.48 186.875 150.52 187.675 150.52C188.448 150.52 189.182 150.48 189.875 150.4C190.595 150.293 191.248 150.147 191.835 149.96ZM212.354 149.84C213.367 149.84 214.207 149.973 214.874 150.24C215.567 150.507 216.141 150.88 216.594 151.36C217.101 151.893 217.461 152.56 217.674 153.36C217.887 154.16 217.994 155.24 217.994 156.6V167.28C217.994 168.4 218.221 169.16 218.674 169.56C219.154 169.96 219.941 170.16 221.034 170.16V171C220.581 170.973 219.887 170.947 218.954 170.92C218.021 170.867 217.114 170.84 216.234 170.84C215.354 170.84 214.487 170.867 213.634 170.92C212.807 170.947 212.181 170.973 211.754 171V170.16C212.714 170.16 213.394 169.96 213.794 169.56C214.194 169.16 214.394 168.4 214.394 167.28V155.72C214.394 154.893 214.327 154.133 214.194 153.44C214.061 152.747 213.754 152.187 213.274 151.76C212.821 151.333 212.114 151.12 211.154 151.12C210.034 151.12 209.047 151.44 208.194 152.08C207.367 152.72 206.714 153.6 206.234 154.72C205.781 155.813 205.554 157.04 205.554 158.4V167.28C205.554 168.4 205.754 169.16 206.154 169.56C206.554 169.96 207.234 170.16 208.194 170.16V171C207.767 170.973 207.127 170.947 206.274 170.92C205.447 170.867 204.594 170.84 203.714 170.84C202.834 170.84 201.927 170.867 200.994 170.92C200.061 170.947 199.367 170.973 198.914 171V170.16C200.007 170.16 200.781 169.96 201.234 169.56C201.714 169.16 201.954 168.4 201.954 167.28V154.76C201.954 153.56 201.741 152.68 201.314 152.12C200.887 151.533 200.087 151.24 198.914 151.24V150.4C199.767 150.48 200.594 150.52 201.394 150.52C202.167 150.52 202.901 150.48 203.594 150.4C204.314 150.293 204.967 150.147 205.554 149.96V154.68C206.247 152.867 207.207 151.613 208.434 150.92C209.687 150.2 210.994 149.84 212.354 149.84ZM234.581 149.84C236.288 149.84 237.821 150.213 239.181 150.96C240.541 151.707 241.621 152.88 242.421 154.48C243.248 156.08 243.661 158.16 243.661 160.72C243.661 163.28 243.248 165.36 242.421 166.96C241.621 168.533 240.541 169.693 239.181 170.44C237.821 171.187 236.288 171.56 234.581 171.56C232.901 171.56 231.368 171.187 229.981 170.44C228.621 169.693 227.528 168.533 226.701 166.96C225.901 165.36 225.501 163.28 225.501 160.72C225.501 158.16 225.901 156.08 226.701 154.48C227.528 152.88 228.621 151.707 229.981 150.96C231.368 150.213 232.901 149.84 234.581 149.84ZM234.581 150.64C233.061 150.64 231.808 151.427 230.821 153C229.861 154.573 229.381 157.147 229.381 160.72C229.381 164.293 229.861 166.867 230.821 168.44C231.808 169.987 233.061 170.76 234.581 170.76C236.101 170.76 237.341 169.987 238.301 168.44C239.288 166.867 239.781 164.293 239.781 160.72C239.781 157.147 239.288 154.573 238.301 153C237.341 151.427 236.101 150.64 234.581 150.64ZM255.855 149.84C256.922 149.84 257.828 150.013 258.575 150.36C259.322 150.707 259.868 151.027 260.215 151.32C261.095 152.04 261.628 151.56 261.815 149.88H262.735C262.682 150.627 262.642 151.52 262.615 152.56C262.588 153.573 262.575 154.947 262.575 156.68H261.655C261.495 155.693 261.215 154.733 260.815 153.8C260.442 152.867 259.882 152.107 259.135 151.52C258.388 150.907 257.415 150.6 256.215 150.6C255.282 150.6 254.495 150.867 253.855 151.4C253.242 151.907 252.935 152.667 252.935 153.68C252.935 154.48 253.175 155.173 253.655 155.76C254.135 156.32 254.762 156.853 255.535 157.36C256.308 157.84 257.148 158.373 258.055 158.96C259.068 159.6 259.988 160.253 260.815 160.92C261.642 161.587 262.295 162.32 262.775 163.12C263.282 163.92 263.535 164.867 263.535 165.96C263.535 167.187 263.215 168.213 262.575 169.04C261.935 169.867 261.095 170.493 260.055 170.92C259.042 171.347 257.922 171.56 256.695 171.56C256.108 171.56 255.548 171.507 255.015 171.4C254.508 171.32 254.015 171.187 253.535 171C253.268 170.867 252.988 170.707 252.695 170.52C252.428 170.333 252.162 170.133 251.895 169.92C251.628 169.707 251.388 169.72 251.175 169.96C250.962 170.173 250.802 170.613 250.695 171.28H249.775C249.828 170.427 249.868 169.387 249.895 168.16C249.922 166.933 249.935 165.307 249.935 163.28H250.855C251.042 164.773 251.308 166.08 251.655 167.2C252.002 168.32 252.548 169.2 253.295 169.84C254.042 170.453 255.082 170.76 256.415 170.76C256.948 170.76 257.482 170.64 258.015 170.4C258.575 170.16 259.042 169.76 259.415 169.2C259.788 168.64 259.975 167.893 259.975 166.96C259.975 165.787 259.548 164.827 258.695 164.08C257.842 163.333 256.762 162.547 255.455 161.72C254.495 161.107 253.588 160.493 252.735 159.88C251.908 159.267 251.228 158.573 250.695 157.8C250.188 157.027 249.935 156.093 249.935 155C249.935 153.8 250.202 152.827 250.735 152.08C251.295 151.307 252.028 150.747 252.935 150.4C253.842 150.027 254.815 149.84 255.855 149.84ZM274.866 139.68V154.64C275.559 152.827 276.519 151.573 277.746 150.88C278.999 150.187 280.306 149.84 281.666 149.84C282.679 149.84 283.519 149.973 284.186 150.24C284.879 150.507 285.452 150.88 285.906 151.36C286.412 151.893 286.772 152.56 286.986 153.36C287.199 154.16 287.306 155.24 287.306 156.6V167.28C287.306 168.4 287.532 169.16 287.986 169.56C288.466 169.96 289.252 170.16 290.346 170.16V171C289.892 170.973 289.199 170.947 288.266 170.92C287.332 170.867 286.426 170.84 285.546 170.84C284.666 170.84 283.799 170.867 282.946 170.92C282.119 170.947 281.492 170.973 281.066 171V170.16C282.026 170.16 282.706 169.96 283.106 169.56C283.506 169.16 283.706 168.4 283.706 167.28V155.72C283.706 154.893 283.639 154.133 283.506 153.44C283.372 152.747 283.066 152.187 282.586 151.76C282.132 151.333 281.426 151.12 280.466 151.12C279.372 151.12 278.399 151.427 277.546 152.04C276.719 152.653 276.066 153.507 275.586 154.6C275.106 155.693 274.866 156.947 274.866 158.36V167.28C274.866 168.4 275.066 169.16 275.466 169.56C275.866 169.96 276.546 170.16 277.506 170.16V171C277.079 170.973 276.439 170.947 275.586 170.92C274.759 170.867 273.906 170.84 273.026 170.84C272.146 170.84 271.239 170.867 270.306 170.92C269.372 170.947 268.679 170.973 268.226 171V170.16C269.319 170.16 270.092 169.96 270.546 169.56C271.026 169.16 271.266 168.4 271.266 167.28V144.48C271.266 143.28 271.052 142.4 270.626 141.84C270.199 141.253 269.399 140.96 268.226 140.96V140.12C269.079 140.2 269.906 140.24 270.706 140.24C271.479 140.24 272.212 140.2 272.906 140.12C273.626 140.013 274.279 139.867 274.866 139.68ZM298.661 140.4C299.355 140.4 299.955 140.653 300.461 141.16C300.968 141.667 301.221 142.267 301.221 142.96C301.221 143.653 300.968 144.253 300.461 144.76C299.955 145.267 299.355 145.52 298.661 145.52C297.968 145.52 297.368 145.267 296.861 144.76C296.355 144.253 296.101 143.653 296.101 142.96C296.101 142.267 296.355 141.667 296.861 141.16C297.368 140.653 297.968 140.4 298.661 140.4ZM300.741 149.96V167.28C300.741 168.4 300.968 169.16 301.421 169.56C301.901 169.96 302.688 170.16 303.781 170.16V171C303.328 170.973 302.635 170.947 301.701 170.92C300.795 170.867 299.875 170.84 298.941 170.84C298.035 170.84 297.115 170.867 296.181 170.92C295.248 170.947 294.555 170.973 294.101 171V170.16C295.195 170.16 295.968 169.96 296.421 169.56C296.901 169.16 297.141 168.4 297.141 167.28V154.76C297.141 153.56 296.928 152.68 296.501 152.12C296.075 151.533 295.275 151.24 294.101 151.24V150.4C294.955 150.48 295.781 150.52 296.581 150.52C297.355 150.52 298.088 150.48 298.781 150.4C299.501 150.293 300.155 150.147 300.741 149.96ZM314.26 143.76V150.44H320.18V151.24H314.26V166.72C314.26 167.973 314.487 168.853 314.94 169.36C315.393 169.867 316.02 170.12 316.82 170.12C317.62 170.12 318.313 169.8 318.9 169.16C319.487 168.493 319.993 167.387 320.42 165.84L321.22 166.04C320.953 167.587 320.42 168.893 319.62 169.96C318.847 171.027 317.647 171.56 316.02 171.56C315.113 171.56 314.367 171.44 313.78 171.2C313.193 170.987 312.673 170.667 312.22 170.24C311.633 169.627 311.22 168.893 310.98 168.04C310.767 167.187 310.66 166.053 310.66 164.64V151.24H306.82V150.44H310.66V144.32C311.327 144.293 311.967 144.24 312.58 144.16C313.193 144.08 313.753 143.947 314.26 143.76ZM329.641 171.28C328.547 171.28 327.601 171.08 326.801 170.68C326.001 170.253 325.387 169.667 324.961 168.92C324.561 168.173 324.361 167.307 324.361 166.32C324.361 165.147 324.627 164.187 325.161 163.44C325.721 162.693 326.427 162.093 327.281 161.64C328.134 161.187 329.027 160.813 329.961 160.52C330.921 160.2 331.827 159.907 332.681 159.64C333.534 159.347 334.227 159.013 334.761 158.64C335.321 158.267 335.601 157.773 335.601 157.16V154.68C335.601 153.56 335.427 152.707 335.081 152.12C334.761 151.533 334.321 151.147 333.761 150.96C333.201 150.747 332.574 150.64 331.881 150.64C331.214 150.64 330.494 150.733 329.721 150.92C328.974 151.107 328.374 151.493 327.921 152.08C328.427 152.187 328.867 152.453 329.241 152.88C329.614 153.307 329.801 153.853 329.801 154.52C329.801 155.187 329.587 155.72 329.161 156.12C328.734 156.493 328.187 156.68 327.521 156.68C326.747 156.68 326.174 156.44 325.801 155.96C325.454 155.453 325.281 154.893 325.281 154.28C325.281 153.587 325.454 153.027 325.801 152.6C326.147 152.173 326.587 151.773 327.121 151.4C327.734 150.973 328.521 150.613 329.481 150.32C330.467 150 331.574 149.84 332.801 149.84C333.894 149.84 334.827 149.973 335.601 150.24C336.374 150.48 337.014 150.84 337.521 151.32C338.214 151.96 338.667 152.747 338.881 153.68C339.094 154.587 339.201 155.68 339.201 156.96V168.08C339.201 168.747 339.294 169.227 339.481 169.52C339.694 169.813 340.014 169.96 340.441 169.96C340.734 169.96 341.014 169.893 341.281 169.76C341.547 169.627 341.867 169.413 342.241 169.12L342.681 169.8C342.121 170.227 341.587 170.587 341.081 170.88C340.574 171.147 339.894 171.28 339.041 171.28C338.267 171.28 337.627 171.147 337.121 170.88C336.614 170.613 336.227 170.227 335.961 169.72C335.721 169.187 335.601 168.52 335.601 167.72C334.881 168.92 334.014 169.813 333.001 170.4C332.014 170.987 330.894 171.28 329.641 171.28ZM331.081 169.68C331.961 169.68 332.774 169.427 333.521 168.92C334.294 168.413 334.987 167.653 335.601 166.64V158.8C335.281 159.253 334.814 159.64 334.201 159.96C333.587 160.253 332.921 160.56 332.201 160.88C331.481 161.173 330.787 161.533 330.121 161.96C329.481 162.36 328.947 162.893 328.521 163.56C328.094 164.227 327.881 165.093 327.881 166.16C327.881 167.227 328.161 168.08 328.721 168.72C329.307 169.36 330.094 169.68 331.081 169.68Z" fill="#010508"/>
</svg>
