<svg width="264" height="72" viewBox="0 0 264 72" fill="none" xmlns="http://www.w3.org/2000/svg">
<path d="M136.493 14.6147C134.842 16.0515 133 18.9524 133 18.9524C133 18.9524 137.61 19.2774 140.235 18.2294C141.485 17.73 142.246 17.4416 143.228 16.5425C143.727 16.0861 144.356 15.2249 144.725 14.1327C145.118 12.9696 144.975 11 144.975 11C144.975 11 141.282 11.5848 139.237 12.6869C138.079 13.3103 137.477 13.7577 136.493 14.6147Z" fill="#625B49" stroke="#625B49"/>
<path d="M136.03 25.5C134.488 24.4619 132 23 132 23C132 23 132.96 25.4357 133.567 27C134.362 29.0465 134.252 30.5861 135.582 32.25C136.628 33.5589 137.504 34.0099 138.927 34.7434L138.94 34.75C140.423 35.5142 142.969 36 142.969 36C142.969 36 143.038 34.7773 142.969 34C142.844 32.5854 142.739 31.7121 142.074 30.5C141.296 29.0823 140.361 28.7376 139.164 27.75C137.993 26.7848 137.276 26.3391 136.03 25.5Z" fill="#6D6A5B" stroke="#6D6A5B"/>
<path d="M129.249 24.499C129.658 23.9993 130.075 23 130.075 23C130.075 23 130.769 23.7779 131.108 24.2492C131.582 24.9074 132.151 26.0365 132.347 26.7476C132.692 27.9967 132.948 29.2445 133.38 31.2446C133.692 32.6886 134 34.9922 134 34.9922C134 34.9922 132.234 35.1028 131.108 34.4925C130.413 34.1161 129.779 33.6537 129.249 32.9935C128.67 32.273 128.454 31.7075 128.216 30.7449C128.066 30.1392 128.038 29.6851 128.009 28.9961C127.964 27.9198 128.084 27.245 128.422 26.2479C128.686 25.4713 128.924 24.896 129.249 24.499Z" fill="#6D6A5B" stroke="#6D6A5B"/>
<path d="M124.89 23.7347C125.779 23.4898 128 23 128 23C128 23 127.029 26.2747 126.001 28.1429C125.389 29.255 125.046 29.9035 124.224 30.8367C123.317 31.8659 121.558 33.0408 121.558 33.0408C121.558 33.0408 119.625 34.3994 118.226 34.7551C117.376 34.971 116.004 35 116.004 35C116.004 35 115.924 32.6131 116.449 31.0816C116.764 30.1605 117.115 29.3673 117.559 28.6327C118.013 27.8819 118.805 26.8071 119.559 26.1837C120.447 25.449 120.472 25.449 122.002 24.7143C122.801 24.3309 124.001 23.9796 124.89 23.7347Z" fill="#6D6A5B" stroke="#6D6A5B"/>
<path d="M125.6 19.1553C126.255 19.6205 128 21.7394 128 21.7394C128 21.7394 126.85 22.5309 126.036 22.7729C124.879 23.117 122.982 23.0313 121.891 22.7729C121.055 22.575 119.709 21.7393 119.055 21.2225C118.301 20.6274 117.527 19.672 116.873 18.6384C116.461 17.9876 116 16.0543 116 16.0543C116 16.0543 117.204 15.9322 117.964 16.0543C118.845 16.1959 120.167 16.5237 121.018 16.8295C122.127 17.2279 122.343 17.3519 123.418 17.8631L123.439 17.873C124.48 18.3676 124.516 18.385 125.6 19.1553Z" fill="#6D6A5B" stroke="#6D6A5B"/>
<path d="M116.963 11.7202C116.462 10.8297 116 9.28492 116 9.28492L119.369 9.0414C119.369 9.0414 121.288 8.85153 122.436 9.28494C123.255 9.59421 123.708 9.94609 124.394 10.48L124.423 10.5025C125.372 11.24 125.813 11.7731 126.589 12.6943C127.199 13.418 127.513 13.8505 128.033 14.6425C128.918 15.9889 129.734 16.6947 129.959 18.2953C130.051 18.9544 129.959 20 129.959 20C129.959 20 128.933 18.8907 127.793 18.0518C127.139 17.5706 126.345 17.2107 125.627 16.8341C124.835 16.4188 123.942 16.1416 123.22 15.86C122.16 15.4468 121.849 15.3566 120.813 14.886C119.969 14.5023 119.132 14.2506 118.407 13.6684C117.67 13.0772 117.427 12.5469 116.963 11.7202Z" fill="#646453" stroke="#65644B"/>
<path d="M136.194 19.7213C134.048 20.0486 131 20.4413 131 20.4413C131 20.4413 132.398 21.8821 134.069 22.8404C135.651 23.7476 137.47 24.525 138.556 24.7601C139.642 24.9952 140.208 25 140.917 25C141.948 25 144.222 23.9519 144.694 23.5603C145.509 22.8847 146.347 22.1205 146.583 21.4006C147.004 20.1185 148 19.2415 148 19.2415C148 19.2415 146.115 19.0227 143.986 19.0011C141.582 18.9768 138.572 19.3587 136.194 19.7213Z" fill="#6D6A5B" stroke="#6D6A5B"/>
<path d="M126.484 8.87932C126.484 7.06897 126 5 126 5C126 5 127.694 5.25862 128.662 5.77586C128.662 5.77586 130.231 6.57895 131.323 7.58616C132.441 8.61687 132.993 9.20861 133.501 10.6897C134.022 12.2067 134.188 13.2831 133.743 14.8276C133.495 15.691 133.215 16.1253 132.775 16.8965C132.007 18.2434 130.355 20 130.355 20C130.355 20 130.144 17.5647 129.63 16.1207C129.209 14.9379 128.712 14.4052 128.178 13.2758C127.567 11.9853 126.484 10.3254 126.484 8.87932Z" fill="#646453" stroke="#646453"/>
<path d="M19.6139 40.992C20.6805 40.992 21.4912 41.12 22.0459 41.376C22.6005 41.6107 23.0912 41.8773 23.5179 42.176C23.7739 42.3253 23.9765 42.4427 24.1259 42.528C24.2965 42.592 24.4565 42.624 24.6059 42.624C24.8192 42.624 24.9685 42.5067 25.0539 42.272C25.1605 42.0373 25.2459 41.6853 25.3099 41.216H26.0459C26.0245 41.5787 25.9925 42.016 25.9499 42.528C25.9285 43.0187 25.9072 43.68 25.8859 44.512C25.8859 45.3227 25.8859 46.4 25.8859 47.744H25.1499C25.0859 46.72 24.8619 45.7387 24.4779 44.8C24.0939 43.8613 23.5285 43.0933 22.7819 42.496C22.0565 41.8987 21.0965 41.6 19.9019 41.6C18.7712 41.6 17.8325 41.9413 17.0859 42.624C16.3605 43.3067 15.9979 44.2027 15.9979 45.312C15.9979 46.272 16.2432 47.0827 16.7339 47.744C17.2245 48.384 17.8752 48.9707 18.6859 49.504C19.5179 50.016 20.4139 50.5707 21.3739 51.168C22.4832 51.8507 23.4645 52.5333 24.3179 53.216C25.1925 53.8773 25.8752 54.6133 26.3659 55.424C26.8779 56.2347 27.1339 57.216 27.1339 58.368C27.1339 59.7333 26.8245 60.864 26.2059 61.76C25.5872 62.656 24.7659 63.328 23.7419 63.776C22.7179 64.224 21.5872 64.448 20.3499 64.448C19.2192 64.448 18.3232 64.32 17.6619 64.064C17.0005 63.808 16.4352 63.5413 15.9659 63.264C15.4965 62.9653 15.1339 62.816 14.8779 62.816C14.6645 62.816 14.5045 62.9333 14.3979 63.168C14.3125 63.4027 14.2379 63.7547 14.1739 64.224H13.4379C13.4805 63.776 13.5019 63.2533 13.5019 62.656C13.5232 62.0373 13.5339 61.2373 13.5339 60.256C13.5552 59.2747 13.5659 58.0373 13.5659 56.544H14.3019C14.3872 57.824 14.6219 59.0187 15.0059 60.128C15.4112 61.2373 16.0192 62.1333 16.8299 62.816C17.6619 63.4773 18.7605 63.808 20.1259 63.808C20.8299 63.808 21.4912 63.6693 22.1099 63.392C22.7499 63.0933 23.2725 62.6347 23.6779 62.016C24.0832 61.376 24.2859 60.5547 24.2859 59.552C24.2859 58.6773 24.0725 57.92 23.6459 57.28C23.2405 56.6187 22.6645 56.0107 21.9179 55.456C21.1712 54.88 20.2965 54.2933 19.2939 53.696C18.2912 53.0773 17.3525 52.448 16.4779 51.808C15.6032 51.168 14.8992 50.432 14.3659 49.6C13.8539 48.7467 13.5979 47.7227 13.5979 46.528C13.5979 45.2693 13.8752 44.2347 14.4299 43.424C15.0059 42.592 15.7525 41.984 16.6699 41.6C17.5872 41.1947 18.5685 40.992 19.6139 40.992ZM34.6551 38.944V50.912C35.2098 49.4613 35.9778 48.4587 36.9591 47.904C37.9618 47.3493 39.0071 47.072 40.0951 47.072C40.9058 47.072 41.5778 47.1787 42.1111 47.392C42.6658 47.6053 43.1245 47.904 43.4871 48.288C43.8925 48.7147 44.1805 49.248 44.3511 49.888C44.5218 50.528 44.6071 51.392 44.6071 52.48V61.024C44.6071 61.92 44.7885 62.528 45.1511 62.848C45.5351 63.168 46.1645 63.328 47.0391 63.328V64C46.6765 63.9787 46.1218 63.9573 45.3751 63.936C44.6285 63.8933 43.9031 63.872 43.1991 63.872C42.4951 63.872 41.8018 63.8933 41.1191 63.936C40.4578 63.9573 39.9565 63.9787 39.6151 64V63.328C40.3831 63.328 40.9271 63.168 41.2471 62.848C41.5671 62.528 41.7271 61.92 41.7271 61.024V51.776C41.7271 51.1147 41.6738 50.5067 41.5671 49.952C41.4605 49.3973 41.2151 48.9493 40.8311 48.608C40.4685 48.2667 39.9031 48.096 39.1351 48.096C38.2605 48.096 37.4818 48.3413 36.7991 48.832C36.1378 49.3227 35.6151 50.0053 35.2311 50.88C34.8471 51.7547 34.6551 52.7573 34.6551 53.888V61.024C34.6551 61.92 34.8151 62.528 35.1351 62.848C35.4551 63.168 35.9991 63.328 36.7671 63.328V64C36.4258 63.9787 35.9138 63.9573 35.2311 63.936C34.5698 63.8933 33.8871 63.872 33.1831 63.872C32.4791 63.872 31.7538 63.8933 31.0071 63.936C30.2605 63.9573 29.7058 63.9787 29.3431 64V63.328C30.2178 63.328 30.8365 63.168 31.1991 62.848C31.5831 62.528 31.7751 61.92 31.7751 61.024V42.784C31.7751 41.824 31.6045 41.12 31.2631 40.672C30.9218 40.2027 30.2818 39.968 29.3431 39.968V39.296C30.0258 39.36 30.6871 39.392 31.3271 39.392C31.9458 39.392 32.5325 39.36 33.0871 39.296C33.6631 39.2107 34.1858 39.0933 34.6551 38.944ZM52.9876 64.224C52.113 64.224 51.3556 64.064 50.7156 63.744C50.0756 63.4027 49.585 62.9333 49.2436 62.336C48.9236 61.7387 48.7636 61.0453 48.7636 60.256C48.7636 59.3173 48.977 58.5493 49.4036 57.952C49.8516 57.3547 50.417 56.8747 51.0996 56.512C51.7823 56.1493 52.497 55.8507 53.2436 55.616C54.0116 55.36 54.737 55.1253 55.4196 54.912C56.1023 54.6773 56.657 54.4107 57.0836 54.112C57.5316 53.8133 57.7556 53.4187 57.7556 52.928V50.944C57.7556 50.048 57.617 49.3653 57.3396 48.896C57.0836 48.4267 56.7316 48.1173 56.2836 47.968C55.8356 47.7973 55.3343 47.712 54.7796 47.712C54.2463 47.712 53.6703 47.7867 53.0516 47.936C52.4543 48.0853 51.9743 48.3947 51.6116 48.864C52.017 48.9493 52.369 49.1627 52.6676 49.504C52.9663 49.8453 53.1156 50.2827 53.1156 50.816C53.1156 51.3493 52.945 51.776 52.6036 52.096C52.2623 52.3947 51.825 52.544 51.2916 52.544C50.673 52.544 50.2143 52.352 49.9156 51.968C49.6383 51.5627 49.4996 51.1147 49.4996 50.624C49.4996 50.0693 49.6383 49.6213 49.9156 49.28C50.193 48.9387 50.545 48.6187 50.9716 48.32C51.4623 47.9787 52.0916 47.6907 52.8596 47.456C53.649 47.2 54.5343 47.072 55.5156 47.072C56.3903 47.072 57.137 47.1787 57.7556 47.392C58.3743 47.584 58.8863 47.872 59.2916 48.256C59.8463 48.768 60.209 49.3973 60.3796 50.144C60.5503 50.8693 60.6356 51.744 60.6356 52.768V61.664C60.6356 62.1973 60.7103 62.5813 60.8596 62.816C61.0303 63.0507 61.2863 63.168 61.6276 63.168C61.8623 63.168 62.0863 63.1147 62.2996 63.008C62.513 62.9013 62.769 62.7307 63.0676 62.496L63.4196 63.04C62.9716 63.3813 62.545 63.6693 62.1396 63.904C61.7343 64.1173 61.1903 64.224 60.5076 64.224C59.889 64.224 59.377 64.1173 58.9716 63.904C58.5663 63.6907 58.257 63.3813 58.0436 62.976C57.8516 62.5493 57.7556 62.016 57.7556 61.376C57.1796 62.336 56.4863 63.0507 55.6756 63.52C54.8863 63.9893 53.9903 64.224 52.9876 64.224ZM54.1396 62.944C54.8436 62.944 55.4943 62.7413 56.0916 62.336C56.7103 61.9307 57.265 61.3227 57.7556 60.512V54.24C57.4996 54.6027 57.1263 54.912 56.6356 55.168C56.145 55.4027 55.6116 55.648 55.0356 55.904C54.4596 56.1387 53.905 56.4267 53.3716 56.768C52.8596 57.088 52.433 57.5147 52.0916 58.048C51.7503 58.5813 51.5796 59.2747 51.5796 60.128C51.5796 60.9813 51.8036 61.664 52.2516 62.176C52.721 62.688 53.3503 62.944 54.1396 62.944ZM75.1331 47.072C75.9438 47.072 76.6158 47.1787 77.1491 47.392C77.7038 47.6053 78.1625 47.904 78.5251 48.288C78.9305 48.7147 79.2185 49.248 79.3891 49.888C79.5598 50.528 79.6451 51.392 79.6451 52.48V61.024C79.6451 61.92 79.8265 62.528 80.1891 62.848C80.5731 63.168 81.2025 63.328 82.0771 63.328V64C81.7145 63.9787 81.1598 63.9573 80.4131 63.936C79.6665 63.8933 78.9411 63.872 78.2371 63.872C77.5331 63.872 76.8398 63.8933 76.1571 63.936C75.4958 63.9573 74.9945 63.9787 74.6531 64V63.328C75.4211 63.328 75.9651 63.168 76.2851 62.848C76.6051 62.528 76.7651 61.92 76.7651 61.024V51.776C76.7651 51.1147 76.7118 50.5067 76.6051 49.952C76.4985 49.3973 76.2531 48.9493 75.8691 48.608C75.5065 48.2667 74.9411 48.096 74.1731 48.096C73.2771 48.096 72.4878 48.352 71.8051 48.864C71.1438 49.376 70.6211 50.08 70.2371 50.976C69.8745 51.8507 69.6931 52.832 69.6931 53.92V61.024C69.6931 61.92 69.8531 62.528 70.1731 62.848C70.4931 63.168 71.0371 63.328 71.8051 63.328V64C71.4638 63.9787 70.9518 63.9573 70.2691 63.936C69.6078 63.8933 68.9251 63.872 68.2211 63.872C67.5171 63.872 66.7918 63.8933 66.0451 63.936C65.2985 63.9573 64.7438 63.9787 64.3811 64V63.328C65.2558 63.328 65.8745 63.168 66.2371 62.848C66.6211 62.528 66.8131 61.92 66.8131 61.024V51.008C66.8131 50.048 66.6425 49.344 66.3011 48.896C65.9598 48.4267 65.3198 48.192 64.3811 48.192V47.52C65.0638 47.584 65.7251 47.616 66.3651 47.616C66.9838 47.616 67.5705 47.584 68.1251 47.52C68.7011 47.4347 69.2238 47.3173 69.6931 47.168V50.944C70.2478 49.4933 71.0158 48.4907 71.9971 47.936C72.9998 47.36 74.0451 47.072 75.1331 47.072ZM91.2509 47.072C93.1282 47.072 94.5895 47.648 95.6349 48.8C96.7015 49.9307 97.2349 51.7013 97.2349 54.112H85.9389L85.9069 53.504H94.1629C94.2055 52.4587 94.1202 51.4987 93.9069 50.624C93.6935 49.728 93.3522 49.0133 92.8829 48.48C92.4349 47.9467 91.8482 47.68 91.1229 47.68C90.1415 47.68 89.2669 48.1707 88.4989 49.152C87.7522 50.1333 87.3042 51.6907 87.1549 53.824L87.2509 53.952C87.2082 54.272 87.1762 54.624 87.1549 55.008C87.1335 55.392 87.1229 55.776 87.1229 56.16C87.1229 57.6107 87.3575 58.8587 87.8269 59.904C88.2962 60.9493 88.9042 61.7493 89.6509 62.304C90.4189 62.8373 91.2082 63.104 92.0189 63.104C92.6589 63.104 93.2669 63.008 93.8429 62.816C94.4189 62.6027 94.9522 62.2613 95.4429 61.792C95.9335 61.3227 96.3602 60.6933 96.7229 59.904L97.3629 60.16C97.1282 60.864 96.7442 61.5467 96.2109 62.208C95.6775 62.8693 95.0055 63.4133 94.1949 63.84C93.3842 64.2453 92.4455 64.448 91.3789 64.448C89.8429 64.448 88.5202 64.096 87.4109 63.392C86.3229 62.688 85.4802 61.7173 84.8829 60.48C84.3069 59.2213 84.0189 57.7813 84.0189 56.16C84.0189 54.2827 84.3175 52.672 84.9149 51.328C85.5122 49.9627 86.3549 48.9173 87.4429 48.192C88.5309 47.4453 89.8002 47.072 91.2509 47.072ZM104.75 38.912V61.024C104.75 61.92 104.932 62.528 105.294 62.848C105.678 63.168 106.308 63.328 107.182 63.328V64C106.82 63.9787 106.265 63.9573 105.518 63.936C104.793 63.8933 104.057 63.872 103.31 63.872C102.585 63.872 101.849 63.8933 101.102 63.936C100.356 63.9573 99.801 63.9787 99.4384 64V63.328C100.313 63.328 100.932 63.168 101.294 62.848C101.678 62.528 101.87 61.92 101.87 61.024V42.752C101.87 41.792 101.7 41.088 101.358 40.64C101.017 40.1707 100.377 39.936 99.4384 39.936V39.264C100.121 39.328 100.782 39.36 101.422 39.36C102.041 39.36 102.628 39.328 103.182 39.264C103.758 39.1787 104.281 39.0613 104.75 38.912ZM135.539 41.344V41.984C134.878 42.0693 134.238 42.2827 133.619 42.624C133.001 42.9653 132.382 43.5307 131.763 44.32L125.587 52.224L126.291 50.656L133.971 61.408C134.334 61.9413 134.729 62.3573 135.155 62.656C135.582 62.9547 136.126 63.1893 136.787 63.36V64C136.275 63.9573 135.635 63.936 134.867 63.936C134.121 63.9147 133.481 63.904 132.947 63.904C132.585 63.904 132.137 63.9147 131.603 63.936C131.091 63.936 130.441 63.9573 129.651 64V63.36C130.377 63.3173 130.835 63.1893 131.027 62.976C131.219 62.7627 131.145 62.4107 130.803 61.92L126.131 54.88C125.705 54.2187 125.321 53.728 124.979 53.408C124.659 53.0667 124.318 52.8427 123.955 52.736C123.614 52.6293 123.177 52.5653 122.643 52.544V51.904C123.539 51.8827 124.286 51.712 124.883 51.392C125.502 51.0507 126.014 50.624 126.419 50.112L129.491 46.208C130.195 45.312 130.675 44.5547 130.931 43.936C131.187 43.3173 131.177 42.848 130.899 42.528C130.622 42.1867 130.035 42.0053 129.139 41.984V41.344C129.545 41.3653 129.961 41.3867 130.387 41.408C130.814 41.408 131.23 41.4187 131.635 41.44C132.062 41.44 132.457 41.44 132.819 41.44C133.374 41.44 133.886 41.4293 134.355 41.408C134.825 41.3867 135.219 41.3653 135.539 41.344ZM125.363 41.344V41.984C124.638 42.0053 124.083 42.0907 123.699 42.24C123.337 42.368 123.091 42.624 122.963 43.008C122.835 43.3707 122.771 43.9467 122.771 44.736V60.608C122.771 61.376 122.835 61.952 122.963 62.336C123.091 62.72 123.337 62.976 123.699 63.104C124.083 63.232 124.638 63.3173 125.363 63.36V64C124.873 63.9573 124.254 63.936 123.507 63.936C122.782 63.9147 122.046 63.904 121.299 63.904C120.467 63.904 119.689 63.9147 118.963 63.936C118.238 63.936 117.651 63.9573 117.203 64V63.36C117.929 63.3173 118.473 63.232 118.835 63.104C119.219 62.976 119.475 62.72 119.603 62.336C119.731 61.952 119.795 61.376 119.795 60.608V44.736C119.795 43.9467 119.731 43.3707 119.603 43.008C119.475 42.624 119.219 42.368 118.835 42.24C118.473 42.0907 117.929 42.0053 117.203 41.984V41.344C117.651 41.3653 118.238 41.3867 118.963 41.408C119.689 41.4293 120.467 41.44 121.299 41.44C122.046 41.44 122.782 41.4293 123.507 41.408C124.254 41.3867 124.873 41.3653 125.363 41.344ZM141.404 39.52C141.959 39.52 142.439 39.7227 142.844 40.128C143.249 40.5333 143.452 41.0133 143.452 41.568C143.452 42.1227 143.249 42.6027 142.844 43.008C142.439 43.4133 141.959 43.616 141.404 43.616C140.849 43.616 140.369 43.4133 139.964 43.008C139.559 42.6027 139.356 42.1227 139.356 41.568C139.356 41.0133 139.559 40.5333 139.964 40.128C140.369 39.7227 140.849 39.52 141.404 39.52ZM143.068 47.168V61.024C143.068 61.92 143.249 62.528 143.612 62.848C143.996 63.168 144.625 63.328 145.5 63.328V64C145.137 63.9787 144.583 63.9573 143.836 63.936C143.111 63.8933 142.375 63.872 141.628 63.872C140.903 63.872 140.167 63.8933 139.42 63.936C138.673 63.9573 138.119 63.9787 137.756 64V63.328C138.631 63.328 139.249 63.168 139.612 62.848C139.996 62.528 140.188 61.92 140.188 61.024V51.008C140.188 50.048 140.017 49.344 139.676 48.896C139.335 48.4267 138.695 48.192 137.756 48.192V47.52C138.439 47.584 139.1 47.616 139.74 47.616C140.359 47.616 140.945 47.584 141.5 47.52C142.076 47.4347 142.599 47.3173 143.068 47.168ZM157.883 47.072C158.694 47.072 159.366 47.1787 159.899 47.392C160.454 47.6053 160.912 47.904 161.275 48.288C161.68 48.7147 161.968 49.248 162.139 49.888C162.31 50.528 162.395 51.392 162.395 52.48V61.024C162.395 61.92 162.576 62.528 162.939 62.848C163.323 63.168 163.952 63.328 164.827 63.328V64C164.464 63.9787 163.91 63.9573 163.163 63.936C162.416 63.8933 161.691 63.872 160.987 63.872C160.283 63.872 159.59 63.8933 158.907 63.936C158.246 63.9573 157.744 63.9787 157.403 64V63.328C158.171 63.328 158.715 63.168 159.035 62.848C159.355 62.528 159.515 61.92 159.515 61.024V51.776C159.515 51.1147 159.462 50.5067 159.355 49.952C159.248 49.3973 159.003 48.9493 158.619 48.608C158.256 48.2667 157.691 48.096 156.923 48.096C156.027 48.096 155.238 48.352 154.555 48.864C153.894 49.376 153.371 50.08 152.987 50.976C152.624 51.8507 152.443 52.832 152.443 53.92V61.024C152.443 61.92 152.603 62.528 152.923 62.848C153.243 63.168 153.787 63.328 154.555 63.328V64C154.214 63.9787 153.702 63.9573 153.019 63.936C152.358 63.8933 151.675 63.872 150.971 63.872C150.267 63.872 149.542 63.8933 148.795 63.936C148.048 63.9573 147.494 63.9787 147.131 64V63.328C148.006 63.328 148.624 63.168 148.987 62.848C149.371 62.528 149.563 61.92 149.563 61.024V51.008C149.563 50.048 149.392 49.344 149.051 48.896C148.71 48.4267 148.07 48.192 147.131 48.192V47.52C147.814 47.584 148.475 47.616 149.115 47.616C149.734 47.616 150.32 47.584 150.875 47.52C151.451 47.4347 151.974 47.3173 152.443 47.168V50.944C152.998 49.4933 153.766 48.4907 154.747 47.936C155.75 47.36 156.795 47.072 157.883 47.072ZM174.065 47.072C175.43 47.072 176.657 47.3707 177.745 47.968C178.833 48.5653 179.697 49.504 180.337 50.784C180.998 52.064 181.329 53.728 181.329 55.776C181.329 57.824 180.998 59.488 180.337 60.768C179.697 62.0267 178.833 62.9547 177.745 63.552C176.657 64.1493 175.43 64.448 174.065 64.448C172.721 64.448 171.494 64.1493 170.385 63.552C169.297 62.9547 168.422 62.0267 167.761 60.768C167.121 59.488 166.801 57.824 166.801 55.776C166.801 53.728 167.121 52.064 167.761 50.784C168.422 49.504 169.297 48.5653 170.385 47.968C171.494 47.3707 172.721 47.072 174.065 47.072ZM174.065 47.712C172.849 47.712 171.846 48.3413 171.057 49.6C170.289 50.8587 169.905 52.9173 169.905 55.776C169.905 58.6347 170.289 60.6933 171.057 61.952C171.846 63.1893 172.849 63.808 174.065 63.808C175.281 63.808 176.273 63.1893 177.041 61.952C177.83 60.6933 178.225 58.6347 178.225 55.776C178.225 52.9173 177.83 50.8587 177.041 49.6C176.273 48.3413 175.281 47.712 174.065 47.712ZM189.484 47.072C190.337 47.072 191.063 47.2107 191.66 47.488C192.257 47.7653 192.695 48.0213 192.972 48.256C193.676 48.832 194.103 48.448 194.252 47.104H194.988C194.945 47.7013 194.913 48.416 194.892 49.248C194.871 50.0587 194.86 51.1573 194.86 52.544H194.124C193.996 51.7547 193.772 50.9867 193.452 50.24C193.153 49.4933 192.705 48.8853 192.108 48.416C191.511 47.9253 190.732 47.68 189.772 47.68C189.025 47.68 188.396 47.8933 187.884 48.32C187.393 48.7253 187.148 49.3333 187.148 50.144C187.148 50.784 187.34 51.3387 187.724 51.808C188.108 52.256 188.609 52.6827 189.228 53.088C189.847 53.472 190.519 53.8987 191.244 54.368C192.055 54.88 192.791 55.4027 193.452 55.936C194.113 56.4693 194.636 57.056 195.02 57.696C195.425 58.336 195.628 59.0933 195.628 59.968C195.628 60.9493 195.372 61.7707 194.86 62.432C194.348 63.0933 193.676 63.5947 192.844 63.936C192.033 64.2773 191.137 64.448 190.156 64.448C189.687 64.448 189.239 64.4053 188.812 64.32C188.407 64.256 188.012 64.1493 187.628 64C187.415 63.8933 187.191 63.7653 186.956 63.616C186.743 63.4667 186.529 63.3067 186.316 63.136C186.103 62.9653 185.911 62.976 185.74 63.168C185.569 63.3387 185.441 63.6907 185.356 64.224H184.62C184.663 63.5413 184.695 62.7093 184.716 61.728C184.737 60.7467 184.748 59.4453 184.748 57.824H185.484C185.633 59.0187 185.847 60.064 186.124 60.96C186.401 61.856 186.839 62.56 187.436 63.072C188.033 63.5627 188.865 63.808 189.932 63.808C190.359 63.808 190.785 63.712 191.212 63.52C191.66 63.328 192.033 63.008 192.332 62.56C192.631 62.112 192.78 61.5147 192.78 60.768C192.78 59.8293 192.439 59.0613 191.756 58.464C191.073 57.8667 190.209 57.2373 189.164 56.576C188.396 56.0853 187.671 55.5947 186.988 55.104C186.327 54.6133 185.783 54.0587 185.356 53.44C184.951 52.8213 184.748 52.0747 184.748 51.2C184.748 50.24 184.961 49.4613 185.388 48.864C185.836 48.2453 186.423 47.7973 187.148 47.52C187.873 47.2213 188.652 47.072 189.484 47.072ZM203.093 38.944V50.912C203.647 49.4613 204.415 48.4587 205.397 47.904C206.399 47.3493 207.445 47.072 208.533 47.072C209.343 47.072 210.015 47.1787 210.549 47.392C211.103 47.6053 211.562 47.904 211.925 48.288C212.33 48.7147 212.618 49.248 212.789 49.888C212.959 50.528 213.045 51.392 213.045 52.48V61.024C213.045 61.92 213.226 62.528 213.589 62.848C213.973 63.168 214.602 63.328 215.477 63.328V64C215.114 63.9787 214.559 63.9573 213.813 63.936C213.066 63.8933 212.341 63.872 211.637 63.872C210.933 63.872 210.239 63.8933 209.557 63.936C208.895 63.9573 208.394 63.9787 208.053 64V63.328C208.821 63.328 209.365 63.168 209.685 62.848C210.005 62.528 210.165 61.92 210.165 61.024V51.776C210.165 51.1147 210.111 50.5067 210.005 49.952C209.898 49.3973 209.653 48.9493 209.269 48.608C208.906 48.2667 208.341 48.096 207.573 48.096C206.698 48.096 205.919 48.3413 205.237 48.832C204.575 49.3227 204.053 50.0053 203.669 50.88C203.285 51.7547 203.093 52.7573 203.093 53.888V61.024C203.093 61.92 203.253 62.528 203.573 62.848C203.893 63.168 204.437 63.328 205.205 63.328V64C204.863 63.9787 204.351 63.9573 203.669 63.936C203.007 63.8933 202.325 63.872 201.621 63.872C200.917 63.872 200.191 63.8933 199.445 63.936C198.698 63.9573 198.143 63.9787 197.781 64V63.328C198.655 63.328 199.274 63.168 199.637 62.848C200.021 62.528 200.213 61.92 200.213 61.024V42.784C200.213 41.824 200.042 41.12 199.701 40.672C199.359 40.2027 198.719 39.968 197.781 39.968V39.296C198.463 39.36 199.125 39.392 199.765 39.392C200.383 39.392 200.97 39.36 201.525 39.296C202.101 39.2107 202.623 39.0933 203.093 38.944ZM220.529 39.52C221.084 39.52 221.564 39.7227 221.969 40.128C222.374 40.5333 222.577 41.0133 222.577 41.568C222.577 42.1227 222.374 42.6027 221.969 43.008C221.564 43.4133 221.084 43.616 220.529 43.616C219.974 43.616 219.494 43.4133 219.089 43.008C218.684 42.6027 218.481 42.1227 218.481 41.568C218.481 41.0133 218.684 40.5333 219.089 40.128C219.494 39.7227 219.974 39.52 220.529 39.52ZM222.193 47.168V61.024C222.193 61.92 222.374 62.528 222.737 62.848C223.121 63.168 223.75 63.328 224.625 63.328V64C224.262 63.9787 223.708 63.9573 222.961 63.936C222.236 63.8933 221.5 63.872 220.753 63.872C220.028 63.872 219.292 63.8933 218.545 63.936C217.798 63.9573 217.244 63.9787 216.881 64V63.328C217.756 63.328 218.374 63.168 218.737 62.848C219.121 62.528 219.313 61.92 219.313 61.024V51.008C219.313 50.048 219.142 49.344 218.801 48.896C218.46 48.4267 217.82 48.192 216.881 48.192V47.52C217.564 47.584 218.225 47.616 218.865 47.616C219.484 47.616 220.07 47.584 220.625 47.52C221.201 47.4347 221.724 47.3173 222.193 47.168ZM231.408 42.208V47.552H236.144V48.192H231.408V60.576C231.408 61.5787 231.589 62.2827 231.952 62.688C232.315 63.0933 232.816 63.296 233.456 63.296C234.096 63.296 234.651 63.04 235.12 62.528C235.589 61.9947 235.995 61.1093 236.336 59.872L236.976 60.032C236.763 61.2693 236.336 62.3147 235.696 63.168C235.077 64.0213 234.117 64.448 232.816 64.448C232.091 64.448 231.493 64.352 231.024 64.16C230.555 63.9893 230.139 63.7333 229.776 63.392C229.307 62.9013 228.976 62.3147 228.784 61.632C228.613 60.9493 228.528 60.0427 228.528 58.912V48.192H225.456V47.552H228.528V42.656C229.061 42.6347 229.573 42.592 230.064 42.528C230.555 42.464 231.003 42.3573 231.408 42.208ZM242.113 64.224C241.238 64.224 240.481 64.064 239.841 63.744C239.201 63.4027 238.71 62.9333 238.369 62.336C238.049 61.7387 237.889 61.0453 237.889 60.256C237.889 59.3173 238.102 58.5493 238.529 57.952C238.977 57.3547 239.542 56.8747 240.225 56.512C240.907 56.1493 241.622 55.8507 242.369 55.616C243.137 55.36 243.862 55.1253 244.545 54.912C245.227 54.6773 245.782 54.4107 246.209 54.112C246.657 53.8133 246.881 53.4187 246.881 52.928V50.944C246.881 50.048 246.742 49.3653 246.465 48.896C246.209 48.4267 245.857 48.1173 245.409 47.968C244.961 47.7973 244.459 47.712 243.905 47.712C243.371 47.712 242.795 47.7867 242.177 47.936C241.579 48.0853 241.099 48.3947 240.737 48.864C241.142 48.9493 241.494 49.1627 241.793 49.504C242.091 49.8453 242.241 50.2827 242.241 50.816C242.241 51.3493 242.07 51.776 241.729 52.096C241.387 52.3947 240.95 52.544 240.417 52.544C239.798 52.544 239.339 52.352 239.041 51.968C238.763 51.5627 238.625 51.1147 238.625 50.624C238.625 50.0693 238.763 49.6213 239.041 49.28C239.318 48.9387 239.67 48.6187 240.097 48.32C240.587 47.9787 241.217 47.6907 241.985 47.456C242.774 47.2 243.659 47.072 244.641 47.072C245.515 47.072 246.262 47.1787 246.881 47.392C247.499 47.584 248.011 47.872 248.417 48.256C248.971 48.768 249.334 49.3973 249.505 50.144C249.675 50.8693 249.761 51.744 249.761 52.768V61.664C249.761 62.1973 249.835 62.5813 249.985 62.816C250.155 63.0507 250.411 63.168 250.753 63.168C250.987 63.168 251.211 63.1147 251.425 63.008C251.638 62.9013 251.894 62.7307 252.193 62.496L252.545 63.04C252.097 63.3813 251.67 63.6693 251.265 63.904C250.859 64.1173 250.315 64.224 249.633 64.224C249.014 64.224 248.502 64.1173 248.097 63.904C247.691 63.6907 247.382 63.3813 247.169 62.976C246.977 62.5493 246.881 62.016 246.881 61.376C246.305 62.336 245.611 63.0507 244.801 63.52C244.011 63.9893 243.115 64.224 242.113 64.224ZM243.265 62.944C243.969 62.944 244.619 62.7413 245.217 62.336C245.835 61.9307 246.39 61.3227 246.881 60.512V54.24C246.625 54.6027 246.251 54.912 245.761 55.168C245.27 55.4027 244.737 55.648 244.161 55.904C243.585 56.1387 243.03 56.4267 242.497 56.768C241.985 57.088 241.558 57.5147 241.217 58.048C240.875 58.5813 240.705 59.2747 240.705 60.128C240.705 60.9813 240.929 61.664 241.377 62.176C241.846 62.688 242.475 62.944 243.265 62.944Z" fill="#010508"/>
</svg>
